<svg width="21" height="21" viewBox="0 0 21 21" fill="none" xmlns="http://www.w3.org/2000/svg">
<path fill-rule="evenodd" clip-rule="evenodd" d="M3.80818 0C1.56213 0 0 2.02152 0 4.17873V12.3488C0 14.5061 1.56214 16.5276 3.80819 16.5276H8.96289L15.8125 21L15.0806 16.5276H17.1918C19.4379 16.5276 21 14.506 21 12.3488V4.17872C21 2.02151 19.4379 0 17.1918 0H3.80818ZM4.51119 10.361L4.50809 10.3678L4.50521 10.3747C4.43158 10.5507 4.39535 10.7357 4.39535 10.9259C4.39535 11.1182 4.43082 11.3055 4.50521 11.4834L4.50934 11.4933L4.51393 11.503C4.59217 11.6684 4.69862 11.8162 4.83322 11.9427C4.97224 12.0733 5.13512 12.171 5.31493 12.2383C5.50081 12.3121 5.69669 12.3474 5.89801 12.3474C6.09808 12.3474 6.2931 12.3125 6.47726 12.2372C6.65407 12.1706 6.81443 12.0746 6.95175 11.9467C7.09163 11.8206 7.20233 11.6716 7.2821 11.503L7.28484 11.4971C7.36747 11.3159 7.40739 11.1238 7.40739 10.9259C7.40739 10.7299 7.36657 10.5402 7.28484 10.361C7.20581 10.1877 7.09479 10.0341 6.9518 9.90506C6.81603 9.77856 6.65801 9.68146 6.48404 9.61104C6.29789 9.5338 6.10053 9.49802 5.89801 9.49802C5.69424 9.49802 5.49604 9.53422 5.30814 9.60988C5.1312 9.68113 4.97069 9.77991 4.83322 9.90907C4.69558 10.0384 4.58876 10.1909 4.51119 10.361ZM9.10981 10.361L9.10672 10.3678L9.10384 10.3747C9.03021 10.5507 8.99398 10.7357 8.99398 10.9259C8.99398 11.1182 9.02945 11.3055 9.10384 11.4834L9.10797 11.4933L9.11256 11.503C9.1908 11.6684 9.29725 11.8162 9.43185 11.9427C9.57087 12.0733 9.73375 12.171 9.91356 12.2383C10.0994 12.3121 10.2953 12.3474 10.4966 12.3474C10.6967 12.3474 10.8917 12.3125 11.0759 12.2372C11.2527 12.1707 11.4131 12.0746 11.5504 11.9467C11.6903 11.8206 11.801 11.6716 11.8807 11.503L11.8835 11.4971C11.9661 11.3159 12.006 11.1238 12.006 10.9259C12.006 10.7299 11.9652 10.5402 11.8835 10.361C11.8044 10.1877 11.6934 10.0341 11.5504 9.90506C11.4147 9.77856 11.2566 9.68146 11.0827 9.61104C10.8965 9.5338 10.6992 9.49802 10.4966 9.49802C10.2929 9.49802 10.0947 9.53422 9.90677 9.60988C9.72983 9.68113 9.56932 9.77991 9.43185 9.90907C9.29421 10.0384 9.18739 10.1909 9.10981 10.361ZM13.7053 10.3678L13.7084 10.361C13.786 10.1909 13.8928 10.0384 14.0305 9.90907C14.1679 9.77991 14.3285 9.68113 14.5054 9.60988C14.6933 9.53422 14.8915 9.49802 15.0953 9.49802C15.2978 9.49802 15.4951 9.5338 15.6813 9.61104C15.8553 9.68146 16.0133 9.77856 16.1491 9.90506C16.292 10.0341 16.4031 10.1877 16.4821 10.361C16.5638 10.5402 16.6047 10.7299 16.6047 10.9259C16.6047 11.1238 16.5647 11.3159 16.4821 11.4971L16.4794 11.503C16.3996 11.6716 16.2889 11.8206 16.149 11.9467C16.0117 12.0746 15.8513 12.1707 15.6745 12.2372C15.4904 12.3125 15.2953 12.3474 15.0953 12.3474C14.8939 12.3474 14.6981 12.3121 14.5122 12.2383C14.3324 12.171 14.1695 12.0733 14.0305 11.9427C13.8959 11.8162 13.7894 11.6684 13.7112 11.503L13.7066 11.4933L13.7025 11.4834C13.6281 11.3055 13.5926 11.1182 13.5926 10.9259C13.5926 10.7357 13.6288 10.5507 13.7025 10.3747L13.7053 10.3678Z" fill="white"/>
</svg>
