<svg viewBox="0 0 221 224" fill="none" xmlns="http://www.w3.org/2000/svg">
<path d="M175 8H20C13.3726 8 8 13.3726 8 20V175C8 181.627 13.3726 187 20 187H123.841C124.333 189.745 125.034 192.417 125.928 195H20C8.9543 195 0 186.046 0 175V20C0 8.9543 8.95431 0 20 0H175C186.046 0 195 8.95431 195 20V127.285C192.421 126.334 189.748 125.577 187 125.03V20C187 13.3726 181.627 8 175 8Z" />
<path d="M72.4232 132.389C71.3672 131.358 70.7739 129.959 70.7739 128.5V51.5C70.7739 50.0413 71.3672 48.6424 72.4232 47.6109C73.4792 46.5795 74.9114 46 76.4049 46H87.6668V35H73.5894C70.4924 35 65.143 37.475 65.143 40.5C65.143 37.475 59.7935 35 56.6965 35H42.6191V46H53.881C55.3745 46 56.8067 46.5795 57.8627 47.6109C58.9187 48.6424 59.512 50.0413 59.512 51.5V128.5C59.512 129.959 58.9187 131.358 57.8627 132.389C56.8067 133.421 55.3745 134 53.881 134H42.6191V145H56.6965C59.7935 145 65.143 142.525 65.143 139.5C65.143 142.525 70.4924 145 73.5894 145H87.6668V134H76.4049C74.9114 134 73.4792 133.421 72.4232 132.389Z"/>
<path d="M159.286 118.619H79.155V110.619H159.286C161.495 110.619 163.286 108.828 163.286 106.619V74.4287C163.286 72.2196 161.495 70.4287 159.286 70.4287H79.155V62.4287H159.286C165.913 62.4287 171.286 67.8013 171.286 74.4287V106.619C171.286 113.247 165.913 118.619 159.286 118.619Z" />
<path d="M37 62.4287H51.1311V70.4287H37C34.7909 70.4287 33 72.2196 33 74.4287V106.619C33 108.828 34.7909 110.619 37 110.619H51.1311V118.619H37C30.3726 118.619 25 113.247 25 106.619V74.4287C25 67.8013 30.3726 62.4287 37 62.4287Z"/>
<path fill-rule="evenodd" clip-rule="evenodd" d="M219.863 188.675L211.878 184.062C212.684 179.712 212.684 175.25 211.878 170.9L219.863 166.288C220.782 165.763 221.194 164.675 220.894 163.663C218.814 156.988 215.271 150.95 210.641 145.925C209.929 145.156 208.767 144.969 207.867 145.494L199.882 150.106C196.527 147.219 192.666 144.988 188.486 143.525V134.319C188.486 133.269 187.755 132.35 186.724 132.125C179.845 130.588 172.797 130.663 166.256 132.125C165.225 132.35 164.494 133.269 164.494 134.319V143.544C160.333 145.025 156.471 147.256 153.097 150.125L145.131 145.513C144.213 144.988 143.069 145.156 142.357 145.944C137.727 150.95 134.185 156.988 132.104 163.681C131.786 164.694 132.217 165.781 133.135 166.306L141.12 170.919C140.314 175.269 140.314 179.731 141.12 184.081L133.135 188.694C132.217 189.219 131.804 190.306 132.104 191.319C134.185 197.994 137.727 204.031 142.357 209.056C143.069 209.825 144.232 210.012 145.131 209.487L153.116 204.875C156.471 207.762 160.333 209.994 164.512 211.456V220.681C164.512 221.731 165.243 222.65 166.274 222.875C173.153 224.412 180.201 224.337 186.743 222.875C187.774 222.65 188.505 221.731 188.505 220.681V211.456C192.666 209.975 196.527 207.744 199.901 204.875L207.886 209.487C208.804 210.012 209.948 209.844 210.66 209.056C215.29 204.05 218.832 198.012 220.913 191.319C221.194 190.287 220.782 189.2 219.863 188.675ZM176.49 192.481C168.224 192.481 161.495 185.75 161.495 177.481C161.495 169.213 168.224 162.481 176.49 162.481C184.756 162.481 191.485 169.213 191.485 177.481C191.485 185.75 184.756 192.481 176.49 192.481Z"/>
</svg>
