<svg width="20" height="19" viewBox="0 0 20 19" fill="none" xmlns="http://www.w3.org/2000/svg">
<path d="M1.86507 19C1.57261 18.9995 1.29382 18.8761 1.0967 18.66C0.895951 18.4457 0.796197 18.1558 0.822507 17.8633L1.07794 15.0539L12.8777 3.25504L16.5653 6.94256L4.76862 18.7403L1.95995 18.9958C1.92763 18.999 1.89531 19 1.86507 19ZM17.3013 6.20526L13.6148 2.51774L15.8261 0.305854C16.0216 0.110031 16.287 0 16.5637 0C16.8404 0 17.1058 0.110031 17.3013 0.305854L19.5126 2.51774C19.7084 2.71335 19.8184 2.97878 19.8184 3.25556C19.8184 3.53234 19.7084 3.79777 19.5126 3.99338L17.3023 6.20422L17.3013 6.20526Z" fill="#828282"/>
</svg>
