<svg width="35" height="35" viewBox="0 0 35 35" fill="none" xmlns="http://www.w3.org/2000/svg">
<circle cx="17.5" cy="17.5" r="17.5" fill="#3BD6EB"/>
<path d="M17.5 24.2294C15.8073 24.2504 14.1321 23.8874 12.6018 23.1681C11.4157 22.593 10.3506 21.7988 9.46337 20.8279C8.52362 19.8241 7.78368 18.6525 7.28265 17.3751L7.17944 17.0511L7.28781 16.727C7.78919 15.4507 8.52755 14.2795 9.46441 13.2742C10.3513 12.3034 11.4161 11.5092 12.6018 10.9341C14.1321 10.2148 15.8073 9.85177 17.5 9.87268C19.1926 9.85181 20.8678 10.2148 22.3981 10.9341C23.5842 11.5091 24.6494 12.3033 25.5365 13.2742C26.4781 14.2767 27.2182 15.4486 27.7173 16.727L27.8205 17.0511L27.7121 17.3751C26.093 21.563 22.0144 24.3006 17.5 24.2294ZM17.5 11.9236C13.9867 11.8143 10.7621 13.8465 9.3643 17.0511C10.7619 20.2558 13.9866 22.2882 17.5 22.1785C21.0131 22.2876 24.2376 20.2554 25.6356 17.0511C24.2396 13.845 21.0138 11.812 17.5 11.9236ZM17.5 20.1275C16.011 20.1373 14.7231 19.0993 14.4254 17.6497C14.1278 16.2001 14.9036 14.7438 16.2774 14.1732C17.6511 13.6027 19.2392 14.0773 20.0683 15.3062C20.8973 16.5351 20.7358 18.1751 19.6827 19.221C19.1062 19.8006 18.3202 20.1271 17.5 20.1275Z" fill="#FEFEFE"/>
</svg>
