<svg viewBox="0 0 195 195" xmlns="http://www.w3.org/2000/svg">
<path fill-rule="evenodd" clip-rule="evenodd" d="M102 8H175C181.627 8 187 13.3726 187 20V175C187 181.627 181.627 187 175 187H20C13.3726 187 8 181.627 8 175V102H11.3125V94H8V20C8 13.3726 13.3726 8 20 8L94 8V11.3125H102V8ZM0 20C0 8.9543 8.95431 0 20 0H175C186.046 0 195 8.95431 195 20V175C195 186.046 186.046 195 175 195H20C8.9543 195 0 186.046 0 175V20ZM98.7883 69.6336L112.782 52.5685C113.302 51.9321 112.833 51 111.994 51H102V44.4375H94V51H84.0062C83.1668 51 82.6981 51.9321 83.2179 52.5685L97.2117 69.6336C97.6122 70.1221 98.3878 70.1221 98.7883 69.6336ZM52.5685 83.2179L69.6336 97.2117C70.1221 97.6122 70.1221 98.3878 69.6336 98.7883L52.5685 112.782C51.9321 113.302 51 112.833 51 111.994V102H44.4375V94H51V84.0062C51 83.1668 51.9321 82.6981 52.5685 83.2179ZM24.5625 102H17.9375V94H24.5625V102ZM37.8125 102H31.1875V94H37.8125V102ZM94 17.9375V24.5625H102V17.9375H94ZM70 126V70H126V126H70ZM112 84V112H84V84H112ZM94 31.1875V37.8125H102V31.1875H94Z" />
</svg>
