<svg viewBox="0 0 195 195" xmlns="http://www.w3.org/2000/svg">
<path fill-rule="evenodd" clip-rule="evenodd" d="M20 8H175C181.627 8 187 13.3726 187 20V175C187 181.627 181.627 187 175 187H20C13.3726 187 8 181.627 8 175V20C8 13.3726 13.3726 8 20 8ZM0 20C0 8.9543 8.95431 0 20 0H175C186.046 0 195 8.95431 195 20V175C195 186.046 186.046 195 175 195H20C8.9543 195 0 186.046 0 175V20ZM37 63H159V49H37V63ZM75 97V142H120V97H75ZM72 89C69.2386 89 67 91.2386 67 94V145C67 147.761 69.2386 150 72 150H123C125.761 150 128 147.761 128 145V94C128 91.2386 125.761 89 123 89H72ZM112.077 113.556C113.488 111.857 113.255 109.335 111.556 107.923C109.857 106.512 107.335 106.745 105.923 108.444L94.608 122.064L88.8328 116.271C87.2731 114.707 84.7405 114.703 83.176 116.263C81.6114 117.822 81.6075 120.355 83.1672 121.919L95.1464 133.936L112.077 113.556Z" />
</svg>
