<svg viewBox="0 0 195 195" xmlns="http://www.w3.org/2000/svg">
<path fill-rule="evenodd" clip-rule="evenodd" d="M175 8H20C13.3726 8 8 13.3726 8 20V175C8 181.627 13.3726 187 20 187H175C181.627 187 187 181.627 187 175V20C187 13.3726 181.627 8 175 8ZM20 0C8.95431 0 0 8.9543 0 20V175C0 186.046 8.9543 195 20 195H175C186.046 195 195 186.046 195 175V20C195 8.95431 186.046 0 175 0H20ZM132 83H103V112H132V83ZM103 78C100.239 78 98 80.2386 98 83C98 80.2386 95.7614 78 93 78H64C61.2386 78 59 80.2386 59 83C59 80.2386 56.7614 78 54 78H25C22.2386 78 20 80.2386 20 83V112C20 114.761 22.2386 117 25 117H54C56.7614 117 59 114.761 59 112C59 114.761 61.2386 117 64 117H93C95.7614 117 98 114.761 98 112C98 114.761 100.239 117 103 117H132C134.761 117 137 114.761 137 112C137 114.761 139.239 117 142 117H171C173.761 117 176 114.761 176 112V83C176 80.2386 173.761 78 171 78H142C139.239 78 137 80.2386 137 83C137 80.2386 134.761 78 132 78H103ZM142 83H171V112H142V83ZM42.3333 87V104.6H47V109H33V104.6H37.6667V93.6H33V89.2H37.6667V87H42.3333ZM86 109H72V100.2C72 99.0331 72.4917 97.9139 73.3668 97.0887C74.242 96.2636 75.429 95.8 76.6667 95.8H81.3333V91.4H72V87H81.3333C82.571 87 83.758 87.4636 84.6332 88.2887C85.5083 89.1139 86 90.233 86 91.4V95.8C86 96.9669 85.5083 98.0861 84.6332 98.9113C83.758 99.7364 82.571 100.2 81.3333 100.2H76.6667V104.6H86V109ZM159.333 95.8H154.667V87H150V100.2H159.333V109H164V87H159.333V95.8ZM111 87H120.333C121.571 87 122.758 87.4636 123.633 88.2887C124.508 89.1139 125 90.233 125 91.4V104.6C125 105.767 124.508 106.886 123.633 107.711C122.758 108.536 121.571 109 120.333 109H111V104.6H120.333V100.2H113.333V95.8H120.333V91.4H111V87Z" />
</svg>
