<svg viewBox="0 0 195 195" xmlns="http://www.w3.org/2000/svg">
<path fill-rule="evenodd" clip-rule="evenodd" d="M175 8H20C13.3726 8 8 13.3726 8 20V175C8 181.627 13.3726 187 20 187H175C181.627 187 187 181.627 187 175V20C187 13.3726 181.627 8 175 8ZM20 0C8.95431 0 0 8.9543 0 20V175C0 186.046 8.9543 195 20 195H175C186.046 195 195 186.046 195 175V20C195 8.95431 186.046 0 175 0H20ZM167.555 55.4995C167.555 54.306 167.023 53.1614 166.075 52.3175C165.127 51.4736 163.841 50.9995 162.5 50.9995L85 50.9999V59.9999L162.5 59.9995C163.841 59.9995 165.127 59.5254 166.075 58.6815C167.023 57.8376 167.555 56.693 167.555 55.4995ZM166.075 112.318C167.023 113.162 167.555 114.307 167.555 115.5C167.555 116.693 167.023 117.838 166.075 118.682C165.127 119.526 163.841 120 162.5 120H137.5V111L162.5 111C163.841 111 165.127 111.474 166.075 112.318ZM75.04 37.9756H53.0512L45.8666 31.1341C45.7752 31.049 45.655 31.0011 45.5298 31H29.96C28.8759 31 28 31.872 28 32.9512V69.0488C28 70.128 28.8759 71 29.96 71H75.04C76.1241 71 77 70.128 77 69.0488V39.9268C77 38.8476 76.1241 37.9756 75.04 37.9756ZM109.436 96C109.877 96 110.315 96.0365 110.745 96.1079V106.275H121.566C121.711 106.882 121.787 107.509 121.787 108.143V132H94V96H109.436ZM86 96C86 91.5817 89.5817 88 94 88H109.436C113.544 88 117.494 89.5801 120.469 92.4131L124.82 96.5564C127.992 99.5763 129.787 103.764 129.787 108.143V132C129.787 136.418 126.205 140 121.787 140H94C89.5817 140 86 136.418 86 132V96ZM55 112.664H76V120.849H55V140H47V79H55V112.664ZM47 146H55V154H47V146ZM55 161H47V166H55V161Z" />
</svg>
