<svg viewBox="0 0 195 195" xmlns="http://www.w3.org/2000/svg">
<path fill-rule="evenodd" clip-rule="evenodd" d="M175 8H20C13.3726 8 8 13.3726 8 20V175C8 181.627 13.3726 187 20 187H175C181.627 187 187 181.627 187 175V20C187 13.3726 181.627 8 175 8ZM20 0C8.95431 0 0 8.9543 0 20V175C0 186.046 8.9543 195 20 195H175C186.046 195 195 186.046 195 175V20C195 8.95431 186.046 0 175 0H20ZM55 133C64.1531 133 71.5714 125.614 71.5714 116.5C71.5714 107.386 64.1531 100 55 100C45.8469 100 38.4286 107.386 38.4286 116.5C38.4286 125.614 45.8469 133 55 133ZM66.6 137.125H64.4379C61.5638 138.44 58.3661 139.188 55 139.188C51.6339 139.188 48.4491 138.44 45.5621 137.125H43.4C33.7938 137.125 26 144.885 26 154.45V159.812C26 163.229 28.7835 166 32.2143 166H77.7857C81.2165 166 84 163.229 84 159.812V154.45C84 144.885 76.2062 137.125 66.6 137.125ZM102 133C102 114.77 116.77 100 135 100C153.23 100 168 114.77 168 133C168 151.23 153.23 166 135 166C116.77 166 102 151.23 102 133ZM147.827 117.125C146.763 115.569 144.488 115.608 143.476 117.125C141.826 119.574 141.454 122.035 141.387 124.484C141.467 126.932 141.826 129.394 143.476 131.842C144.541 133.399 146.816 133.359 147.827 131.842C149.477 129.394 149.85 126.932 149.917 124.484C149.837 122.035 149.477 119.574 147.827 117.125ZM126.537 117.125C125.473 115.569 123.197 115.608 122.186 117.125C120.536 119.574 120.163 122.035 120.097 124.484C120.177 126.932 120.536 129.394 122.186 131.842C123.25 133.399 125.526 133.359 126.537 131.842C128.187 129.394 128.56 126.932 128.626 124.484C128.546 122.035 128.187 119.574 126.537 117.125ZM115.865 144.004C117.103 151.323 126.936 156.419 135 156.419C143.064 156.419 152.897 151.323 154.135 144.004C154.387 142.434 152.897 141.13 151.38 141.623C147.362 142.913 141.387 143.645 135 143.645C128.613 143.645 122.638 142.913 118.62 141.623C117.103 141.13 115.599 142.434 115.865 144.004ZM51.674 31.0176L44.1066 46.0142L27.1754 48.4268C24.1391 48.8572 22.9223 52.5157 25.1242 54.6112L37.3735 66.2777L34.4763 82.7581C33.9548 85.737 37.1649 87.9684 39.8535 86.5752L55 78.7937L70.1465 86.5752C72.8351 87.957 76.0452 85.737 75.5237 82.7581L72.6265 66.2777L84.8758 54.6112C87.0777 52.5157 85.8609 48.8572 82.8246 48.4268L65.8934 46.0142L58.326 31.0176C56.9701 28.3445 53.0415 28.3105 51.674 31.0176ZM142.403 75.8571H120.205C114.077 75.8571 109.105 70.8661 109.105 64.7143V37.7857C109.105 36.242 110.343 35 111.88 35H157.201C165.364 35 172 41.6625 172 49.8571C172 58.0518 165.364 64.7143 157.201 64.7143H153.502C153.502 70.8661 148.53 75.8571 142.403 75.8571ZM164.601 49.8571C164.601 45.7598 161.283 42.4286 157.201 42.4286H153.502V57.2857H157.201C161.283 57.2857 164.601 53.9545 164.601 49.8571ZM103.591 87H162.716C168.231 87 169.757 79.5714 166.867 79.5714H99.4285C96.5382 79.5714 98.0874 87 103.591 87Z" />
</svg>
