<svg viewBox="0 0 196 195" xmlns="http://www.w3.org/2000/svg">
<path fill-rule="evenodd" clip-rule="evenodd" d="M21 8H176C182.627 8 188 13.3726 188 20V113.473L146.611 81.0755L146.21 80.8852C144.549 80.0969 142.685 79.8292 140.873 80.1058C139.061 80.3826 137.356 81.1962 136.011 82.4674L135.836 82.6327L101.573 123.841L77.9123 100.482L77.5451 100.25C75.8313 99.169 73.8027 98.6965 71.7973 98.8835C69.8323 99.0667 67.9587 99.8771 66.4917 101.223L9 149.875V20C9 13.3726 14.3726 8 21 8ZM165.603 106.101L159 115.001L142.5 104.001L131 111.001L127.866 104.732L141.617 88.1924C141.739 88.1088 141.897 88.0424 142.081 88.0142C142.227 87.992 142.372 87.9964 142.509 88.0234L165.603 106.101ZM1 156.645V20C1 8.9543 9.95431 0 21 0H176C187.046 0 196 8.95431 196 20V119.735L196 119.735V181.079C196 182.872 195.627 184.643 194.908 186.287C194.19 187.93 193.143 189.409 191.838 190.644C190.535 191.88 188.998 192.849 187.322 193.506C185.647 194.164 183.858 194.5 182.056 194.5H180.464C179.029 194.827 177.534 195 176 195H21C9.9543 195 1 186.046 1 175V159.072L0.432129 157.125L1 156.645ZM78 53C78 64.0457 69.0457 73 58 73C46.9543 73 38 64.0457 38 53C38 41.9543 46.9543 33 58 33C69.0457 33 78 41.9543 78 53Z" />
</svg>
