<svg viewBox="0 0 195 195" xmlns="http://www.w3.org/2000/svg">
<path fill-rule="evenodd" clip-rule="evenodd" d="M175 8H20C13.3726 8 8 13.3726 8 20V175C8 181.627 13.3726 187 20 187H175C181.627 187 187 181.627 187 175V20C187 13.3726 181.627 8 175 8ZM20 0C8.95431 0 0 8.9543 0 20V175C0 186.046 8.9543 195 20 195H175C186.046 195 195 186.046 195 175V20C195 8.95431 186.046 0 175 0H20ZM64 69H43V90H64V69ZM35 61V98H72V61H35ZM153 69H131V90H153V69ZM123 61V98H161V61H123ZM116 61H79V98H85.9235V118.319C82.5905 117.074 78.6793 117.463 75.5302 119.809C70.6158 123.47 69.538 130.447 73.0943 135.455L91.4591 161.323C93.5389 164.251 96.9053 166 100.464 166H130.311C135.468 166 139.95 162.389 141.119 157.3L145.711 137.312C145.903 136.474 146 135.617 146 134.758V120.648C146 112.78 138.194 107.333 130.964 110.127C127.7 105.967 122.144 104.761 117.592 106.919C115.06 104.284 111.535 103.142 108.117 103.622V98H116V61ZM89.099 133.376L84.5578 126.98C82.1471 123.585 77.2252 127.381 79.6369 130.777L98.0039 156.645C98.5788 157.454 99.4985 157.938 100.464 157.938H130.311C131.733 157.938 132.957 156.931 133.288 155.489L137.88 135.501C137.936 135.258 137.964 135.008 137.964 134.758V120.648C137.964 116.422 131.842 116.429 131.842 120.648C131.842 122.133 130.643 123.336 129.163 123.336H128.015C126.536 123.336 125.337 122.133 125.337 120.648V117.121C125.337 112.895 119.214 112.902 119.214 117.121V120.648C119.214 122.133 118.015 123.336 116.536 123.336H115.387C113.908 123.336 112.709 122.133 112.709 120.648V114.77C112.709 110.543 106.587 110.55 106.587 114.77V120.648C106.587 122.133 105.387 123.336 103.908 123.336H102.76C101.281 123.336 100.081 122.133 100.081 120.648V91.2539C100.081 87.0278 93.9591 87.0345 93.9591 91.2539V131.817C93.9591 134.432 90.6048 135.497 89.099 133.376Z" />
</svg>
