<svg viewBox="0 0 195 195" xmlns="http://www.w3.org/2000/svg">
<path fill-rule="evenodd" clip-rule="evenodd" d="M20 8H175C181.627 8 187 13.3726 187 20V36.5351C186.412 36.1948 185.729 36 185 36C182.791 36 181 37.7909 181 40C181 42.2091 182.791 44 185 44C185.729 44 186.412 43.8052 187 43.4649V82.5351C186.412 82.1948 185.729 82 185 82C182.791 82 181 83.7909 181 86C181 88.2091 182.791 90 185 90C185.729 90 186.412 89.8052 187 89.4649V128.535C186.412 128.195 185.729 128 185 128C182.791 128 181 129.791 181 132C181 134.209 182.791 136 185 136C185.729 136 186.412 135.805 187 135.465V174.535C186.412 174.195 185.729 174 185 174C182.791 174 181 175.791 181 178C181 180.126 182.659 181.865 184.753 181.993C182.575 185.025 179.018 187 175 187H20C13.3726 187 8 181.627 8 175V158.465C8.58835 158.805 9.27143 159 10 159C12.2091 159 14 157.209 14 155C14 152.791 12.2091 151 10 151C9.27143 151 8.58835 151.195 8 151.535V112.465C8.58835 112.805 9.27143 113 10 113C12.2091 113 14 111.209 14 109C14 106.791 12.2091 105 10 105C9.27143 105 8.58835 105.195 8 105.535V66.4649C8.58835 66.8052 9.27143 67 10 67C12.2091 67 14 65.2091 14 63C14 60.7909 12.2091 59 10 59C9.27143 59 8.58835 59.1948 8 59.5351V20.4649C8.58835 20.8052 9.27143 21 10 21C12.2091 21 14 19.2091 14 17C14 14.8737 12.3409 13.1349 10.2467 13.0075C12.4246 9.97511 15.9816 8 20 8ZM0 20C0 8.9543 8.95431 0 20 0H175C186.046 0 195 8.95431 195 20V175C195 186.046 186.046 195 175 195H20C8.9543 195 0 186.046 0 175V20ZM33 57H162V139H33V57ZM25 147V135.874C24.6804 135.956 24.3453 136 24 136C21.7909 136 20 134.209 20 132C20 129.791 21.7909 128 24 128C24.3453 128 24.6804 128.044 25 128.126V89.874C24.6804 89.9563 24.3453 90 24 90C21.7909 90 20 88.2091 20 86C20 83.7909 21.7909 82 24 82C24.3453 82 24.6804 82.0437 25 82.126V49H170V59.126C170.32 59.0438 170.655 59 171 59C173.209 59 175 60.7909 175 63C175 65.2091 173.209 67 171 67C170.655 67 170.32 66.9563 170 66.874V105.126C170.32 105.044 170.655 105 171 105C173.209 105 175 106.791 175 109C175 111.209 173.209 113 171 113C170.655 113 170.32 112.956 170 112.874V147H25ZM148 116H47V108H148V116ZM47 104H148V96H47V104ZM77 128H47V120H77V128ZM156.503 66.0985L151.101 71.5L156.503 76.9015C157.166 77.5649 157.166 78.6396 156.503 79.3024L155.302 80.5029C154.64 81.1657 153.564 81.1657 152.902 80.5029L147.5 75.1014L142.098 80.5029C141.436 81.1657 140.36 81.1657 139.698 80.5029L138.497 79.3024C137.834 78.639 137.834 77.5643 138.497 76.9015L143.899 71.5L138.497 66.0985C137.834 65.4351 137.834 64.3604 138.497 63.6976L139.698 62.4971C140.361 61.8343 141.436 61.8343 142.098 62.4971L147.5 67.8986L152.902 62.4971C153.565 61.8343 154.64 61.8343 155.302 62.4971L156.503 63.6976C157.166 64.361 157.166 65.4357 156.503 66.0985ZM102 21C104.209 21 106 19.2091 106 17C106 14.7909 104.209 13 102 13C99.7909 13 98 14.7909 98 17C98 19.2091 99.7909 21 102 21ZM60 17C60 19.2091 58.2091 21 56 21C53.7909 21 52 19.2091 52 17C52 14.7909 53.7909 13 56 13C58.2091 13 60 14.7909 60 17ZM148 21C150.209 21 152 19.2091 152 17C152 14.7909 150.209 13 148 13C145.791 13 144 14.7909 144 17C144 19.2091 145.791 21 148 21ZM37 17C37 19.2091 35.2091 21 33 21C30.7909 21 29 19.2091 29 17C29 14.7909 30.7909 13 33 13C35.2091 13 37 14.7909 37 17ZM125 21C127.209 21 129 19.2091 129 17C129 14.7909 127.209 13 125 13C122.791 13 121 14.7909 121 17C121 19.2091 122.791 21 125 21ZM83 17C83 19.2091 81.2091 21 79 21C76.7909 21 75 19.2091 75 17C75 14.7909 76.7909 13 79 13C81.2091 13 83 14.7909 83 17ZM171 21C173.209 21 175 19.2091 175 17C175 14.7909 173.209 13 171 13C168.791 13 167 14.7909 167 17C167 19.2091 168.791 21 171 21ZM102 159C104.209 159 106 157.209 106 155C106 152.791 104.209 151 102 151C99.7909 151 98 152.791 98 155C98 157.209 99.7909 159 102 159ZM60 155C60 157.209 58.2091 159 56 159C53.7909 159 52 157.209 52 155C52 152.791 53.7909 151 56 151C58.2091 151 60 152.791 60 155ZM148 159C150.209 159 152 157.209 152 155C152 152.791 150.209 151 148 151C145.791 151 144 152.791 144 155C144 157.209 145.791 159 148 159ZM37 155C37 157.209 35.2091 159 33 159C30.7909 159 29 157.209 29 155C29 152.791 30.7909 151 33 151C35.2091 151 37 152.791 37 155ZM125 159C127.209 159 129 157.209 129 155C129 152.791 127.209 151 125 151C122.791 151 121 152.791 121 155C121 157.209 122.791 159 125 159ZM83 155C83 157.209 81.2091 159 79 159C76.7909 159 75 157.209 75 155C75 152.791 76.7909 151 79 151C81.2091 151 83 152.791 83 155ZM171 159C173.209 159 175 157.209 175 155C175 152.791 173.209 151 171 151C168.791 151 167 152.791 167 155C167 157.209 168.791 159 171 159ZM28 40C28 42.2091 26.2091 44 24 44C21.7909 44 20 42.2091 20 40C20 37.7909 21.7909 36 24 36C26.2091 36 28 37.7909 28 40ZM116 44C118.209 44 120 42.2091 120 40C120 37.7909 118.209 36 116 36C113.791 36 112 37.7909 112 40C112 42.2091 113.791 44 116 44ZM74 40C74 42.2091 72.2091 44 70 44C67.7909 44 66 42.2091 66 40C66 37.7909 67.7909 36 70 36C72.2091 36 74 37.7909 74 40ZM162 44C164.209 44 166 42.2091 166 40C166 37.7909 164.209 36 162 36C159.791 36 158 37.7909 158 40C158 42.2091 159.791 44 162 44ZM51 40C51 42.2091 49.2091 44 47 44C44.7909 44 43 42.2091 43 40C43 37.7909 44.7909 36 47 36C49.2091 36 51 37.7909 51 40ZM139 44C141.209 44 143 42.2091 143 40C143 37.7909 141.209 36 139 36C136.791 36 135 37.7909 135 40C135 42.2091 136.791 44 139 44ZM97 40C97 42.2091 95.2091 44 93 44C90.7909 44 89 42.2091 89 40C89 37.7909 90.7909 36 93 36C95.2091 36 97 37.7909 97 40ZM28 178C28 180.209 26.2091 182 24 182C21.7909 182 20 180.209 20 178C20 175.791 21.7909 174 24 174C26.2091 174 28 175.791 28 178ZM116 182C118.209 182 120 180.209 120 178C120 175.791 118.209 174 116 174C113.791 174 112 175.791 112 178C112 180.209 113.791 182 116 182ZM74 178C74 180.209 72.2091 182 70 182C67.7909 182 66 180.209 66 178C66 175.791 67.7909 174 70 174C72.2091 174 74 175.791 74 178ZM162 182C164.209 182 166 180.209 166 178C166 175.791 164.209 174 162 174C159.791 174 158 175.791 158 178C158 180.209 159.791 182 162 182ZM51 178C51 180.209 49.2091 182 47 182C44.7909 182 43 180.209 43 178C43 175.791 44.7909 174 47 174C49.2091 174 51 175.791 51 178ZM139 182C141.209 182 143 180.209 143 178C143 175.791 141.209 174 139 174C136.791 174 135 175.791 135 178C135 180.209 136.791 182 139 182ZM97 178C97 180.209 95.2091 182 93 182C90.7909 182 89 180.209 89 178C89 175.791 90.7909 174 93 174C95.2091 174 97 175.791 97 178Z" />
</svg>
