<svg viewBox="0 0 195 195" xmlns="http://www.w3.org/2000/svg">
<path fill-rule="evenodd" clip-rule="evenodd" d="M175 8H20C13.3726 8 8 13.3726 8 20V175C8 181.627 13.3726 187 20 187H175C181.627 187 187 181.627 187 175V20C187 13.3726 181.627 8 175 8ZM20 0C8.95431 0 0 8.9543 0 20V175C0 186.046 8.9543 195 20 195H175C186.046 195 195 186.046 195 175V20C195 8.95431 186.046 0 175 0H20ZM25.1495 31.9998C25.1731 26.477 29.6694 22.019 35.1922 22.0426L60.2345 22.1495C65.7573 22.1731 70.2153 26.6694 70.1917 32.1922L70.0847 57.2345C70.0611 62.7573 65.5648 67.2153 60.0421 67.1917L34.9998 67.0847C29.477 67.0611 25.019 62.5648 25.0426 57.0421L25.1495 31.9998ZM52.874 45.827L52.9226 45.7788L52.9291 45.7731C54.7493 44.1761 57.2928 41.9445 57.3117 37.5358C57.3349 32.0875 52.2761 28.4862 47.7188 28.4668C43.1614 28.4473 38.072 32.0052 38.0487 37.4535C38.0474 37.7671 38.1078 38.078 38.2266 38.3682C38.3454 38.6585 38.5202 38.9225 38.741 39.1453C38.9618 39.368 39.2244 39.545 39.5136 39.6663C39.8029 39.7875 40.1132 39.8506 40.4268 39.852C40.7404 39.8533 41.0512 39.7929 41.3415 39.6741C41.6318 39.5553 41.8958 39.3805 42.1185 39.1597C42.3413 38.9389 42.5183 38.6763 42.6396 38.3871C42.7608 38.0978 42.8239 37.7875 42.8253 37.4739C42.8347 35.2754 45.1215 33.2323 47.6983 33.2433C50.2752 33.2543 52.5445 35.3169 52.5351 37.5154C52.5303 38.6485 52.2471 39.4278 51.7936 40.1017C51.3125 40.8166 50.624 41.4425 49.7012 42.2549L49.6297 42.3166L49.5848 42.356C47.7797 43.9431 45.2548 46.163 45.2362 50.5222C45.2349 50.8358 45.2953 51.1466 45.4141 51.4369C45.5329 51.7272 45.7077 51.9912 45.9285 52.2139C46.1493 52.4367 46.4119 52.6137 46.7011 52.735C46.9904 52.8562 47.3007 52.9193 47.6143 52.9207C47.9279 52.922 48.2387 52.8616 48.529 52.7428C48.8193 52.624 49.0833 52.4492 49.306 52.2284C49.5288 52.0075 49.7058 51.745 49.8271 51.4558C49.9483 51.1665 50.0114 50.8562 50.0128 50.5426C50.0175 49.4283 50.2978 48.6621 50.7497 47.9959C51.2307 47.2867 51.9208 46.6628 52.851 45.8471L52.874 45.827ZM47.5804 60.8471C48.4059 60.8507 49.199 60.5261 49.7853 59.9449C50.3715 59.3637 50.7028 58.5734 50.7063 57.7478C50.7098 56.9223 50.3853 56.1292 49.8041 55.543C49.2228 54.9568 48.4325 54.6255 47.607 54.622C46.7815 54.6184 45.9884 54.943 45.4022 55.5242C44.816 56.1054 44.4847 56.8957 44.4811 57.7212C44.4776 58.5468 44.8022 59.3399 45.3834 59.9261C45.9646 60.5123 46.7549 60.8436 47.5804 60.8471ZM35.1922 75.0426C29.6694 75.019 25.1731 79.477 25.1495 84.9998L25.0426 110.042C25.019 115.565 29.477 120.061 34.9998 120.085L60.0421 120.192C65.5648 120.215 70.0611 115.757 70.0847 110.234L70.1917 85.1922C70.2153 79.6694 65.7573 75.1731 60.2345 75.1496L35.1922 75.0426ZM52.9226 98.7788L52.874 98.827L52.851 98.8471C51.9208 99.6628 51.2307 100.287 50.7497 100.996C50.2978 101.662 50.0175 102.428 50.0128 103.543C50.0114 103.856 49.9483 104.167 49.8271 104.456C49.7058 104.745 49.5288 105.008 49.306 105.228C49.0833 105.449 48.8193 105.624 48.529 105.743C48.2387 105.862 47.9279 105.922 47.6143 105.921C47.3007 105.919 46.9904 105.856 46.7011 105.735C46.4119 105.614 46.1493 105.437 45.9285 105.214C45.7077 104.991 45.5329 104.727 45.4141 104.437C45.2953 104.147 45.2349 103.836 45.2362 103.522C45.2548 99.163 47.7797 96.9431 49.5848 95.356L49.6297 95.3166L49.7012 95.2549C50.624 94.4425 51.3125 93.8166 51.7936 93.1017C52.2471 92.4278 52.5303 91.6485 52.5351 90.5154C52.5445 88.3168 50.2752 86.2543 47.6983 86.2433C45.1215 86.2323 42.8347 88.2754 42.8253 90.4739C42.8239 90.7875 42.7608 91.0978 42.6396 91.3871C42.5183 91.6763 42.3413 91.9389 42.1185 92.1597C41.8958 92.3805 41.6318 92.5553 41.3415 92.6741C41.0512 92.7929 40.7404 92.8533 40.4268 92.852C40.1132 92.8506 39.8029 92.7875 39.5136 92.6663C39.2244 92.545 38.9618 92.368 38.741 92.1452C38.5202 91.9225 38.3454 91.6585 38.2266 91.3682C38.1078 91.078 38.0474 90.7671 38.0487 90.4535C38.072 85.0052 43.1614 81.4473 47.7188 81.4668C52.2761 81.4863 57.3349 85.0875 57.3117 90.5358C57.2928 94.9445 54.7493 97.1761 52.9291 98.7731L52.9226 98.7788ZM49.7853 112.945C49.199 113.526 48.4059 113.851 47.5804 113.847C46.7549 113.844 45.9646 113.512 45.3834 112.926C44.8022 112.34 44.4776 111.547 44.4811 110.721C44.4847 109.896 44.816 109.105 45.4022 108.524C45.9884 107.943 46.7815 107.618 47.607 107.622C48.4325 107.625 49.2228 107.957 49.8041 108.543C50.3853 109.129 50.7098 109.922 50.7063 110.748C50.7028 111.573 50.3715 112.364 49.7853 112.945ZM25.1495 138C25.1731 132.477 29.6694 128.019 35.1922 128.043L60.2345 128.15C65.7573 128.173 70.2153 132.669 70.1917 138.192L70.0847 163.234C70.0611 168.757 65.5648 173.215 60.0421 173.192L34.9998 173.085C29.477 173.061 25.019 168.565 25.0426 163.042L25.1495 138ZM52.874 151.827L52.9226 151.779L52.9291 151.773C54.7493 150.176 57.2928 147.945 57.3117 143.536C57.3349 138.087 52.2761 134.486 47.7188 134.467C43.1614 134.447 38.072 138.005 38.0487 143.454C38.0474 143.767 38.1078 144.078 38.2266 144.368C38.3454 144.659 38.5202 144.923 38.741 145.145C38.9618 145.368 39.2244 145.545 39.5136 145.666C39.8029 145.788 40.1132 145.851 40.4268 145.852C40.7404 145.853 41.0512 145.793 41.3415 145.674C41.6318 145.555 41.8958 145.381 42.1185 145.16C42.3413 144.939 42.5183 144.676 42.6396 144.387C42.7608 144.098 42.8239 143.788 42.8253 143.474C42.8347 141.275 45.1215 139.232 47.6983 139.243C50.2752 139.254 52.5445 141.317 52.5351 143.515C52.5303 144.649 52.2471 145.428 51.7936 146.102C51.3125 146.817 50.624 147.442 49.7012 148.255L49.6297 148.317L49.5848 148.356C47.7797 149.943 45.2548 152.163 45.2362 156.522C45.2349 156.836 45.2953 157.147 45.4141 157.437C45.5329 157.727 45.7077 157.991 45.9285 158.214C46.1493 158.437 46.4119 158.614 46.7011 158.735C46.9904 158.856 47.3007 158.919 47.6143 158.921C47.9279 158.922 48.2387 158.862 48.529 158.743C48.8193 158.624 49.0833 158.449 49.306 158.228C49.5288 158.008 49.7058 157.745 49.8271 157.456C49.9483 157.167 50.0114 156.856 50.0128 156.543C50.0175 155.428 50.2978 154.662 50.7497 153.996C51.2307 153.287 51.9208 152.663 52.851 151.847L52.874 151.827ZM47.5804 166.847C48.4059 166.851 49.199 166.526 49.7853 165.945C50.3715 165.364 50.7028 164.573 50.7063 163.748C50.7098 162.922 50.3853 162.129 49.8041 161.543C49.2228 160.957 48.4325 160.625 47.607 160.622C46.7815 160.618 45.9884 160.943 45.4022 161.524C44.816 162.105 44.4847 162.896 44.4811 163.721C44.4776 164.547 44.8022 165.34 45.3834 165.926C45.9646 166.512 46.7549 166.844 47.5804 166.847ZM85 33C82.7909 33 81 34.7909 81 37C81 39.2091 82.7909 41 85 41H166C168.209 41 170 39.2091 170 37C170 34.7909 168.209 33 166 33H85ZM81 97C81 94.7909 82.7909 93 85 93H148C150.209 93 152 94.7909 152 97C152 99.2091 150.209 101 148 101H85C82.7909 101 81 99.2091 81 97ZM85 143C82.7909 143 81 144.791 81 147C81 149.209 82.7909 151 85 151H166C168.209 151 170 149.209 170 147C170 144.791 168.209 143 166 143H85ZM81 159C81 156.791 82.7909 155 85 155H143C145.209 155 147 156.791 147 159C147 161.209 145.209 163 143 163H85C82.7909 163 81 161.209 81 159ZM85 45C82.7909 45 81 46.7909 81 49C81 51.2091 82.7909 53 85 53H110C112.209 53 114 51.2091 114 49C114 46.7909 112.209 45 110 45H85Z" />
</svg>
