<svg viewBox="0 0 195 195" xmlns="http://www.w3.org/2000/svg">
<path fill-rule="evenodd" clip-rule="evenodd" d="M175 8H20C13.3726 8 8 13.3726 8 20V175C8 181.627 13.3726 187 20 187H175C181.627 187 187 181.627 187 175V20C187 13.3726 181.627 8 175 8ZM20 0C8.95431 0 0 8.9543 0 20V175C0 186.046 8.9543 195 20 195H175C186.046 195 195 186.046 195 175V20C195 8.95431 186.046 0 175 0H20ZM71.875 134.25C71.875 135.642 72.4413 136.978 73.4493 137.962C74.4573 138.947 75.8245 139.5 77.25 139.5H88V150H74.5625C71.6062 150 66.5 147.637 66.5 144.75C66.5 147.637 61.3937 150 58.4375 150H45V139.5H55.75C57.1755 139.5 58.5427 138.947 59.5507 137.962C60.5587 136.978 61.125 135.642 61.125 134.25V125V117V79V71V60.75C61.125 59.3576 60.5587 58.0223 59.5507 57.0377C58.5427 56.0531 57.1755 55.5 55.75 55.5H45V45H58.4375C61.3937 45 66.5 47.3625 66.5 50.25C66.5 47.3625 71.6062 45 74.5625 45H88V55.5H77.25C75.8245 55.5 74.4573 56.0531 73.4493 57.0377C72.4413 58.0223 71.875 59.3576 71.875 60.75V71V79V117V125V134.25ZM156 125H79.875V117H156C158.209 117 160 115.209 160 113V83C160 80.7909 158.209 79 156 79H79.875V71H156C162.627 71 168 76.3726 168 83V113C168 119.627 162.627 125 156 125ZM40 79H53.125V71H40C33.3726 71 28 76.3726 28 83V113C28 119.627 33.3726 125 40 125H53.125V117H40C37.7909 117 36 115.209 36 113V83C36 80.7909 37.7909 79 40 79Z" />
</svg>
