<svg viewBox="0 0 195 195" xmlns="http://www.w3.org/2000/svg">
<path fill-rule="evenodd" clip-rule="evenodd" d="M20 8H175C181.627 8 187 13.3726 187 20V175C187 181.627 181.627 187 175 187H20C13.3726 187 8 181.627 8 175V20C8 13.3726 13.3726 8 20 8ZM0 20C0 8.9543 8.95431 0 20 0H175C186.046 0 195 8.95431 195 20V175C195 186.046 186.046 195 175 195H20C8.9543 195 0 186.046 0 175V20ZM56 101.664H77V109.849H56V146.816H77V155H48V78H56V101.664ZM167.555 55.4995C167.555 54.306 167.023 53.1614 166.075 52.3175C165.127 51.4736 163.841 50.9995 162.5 50.9995L79 50.9999V59.9999L162.5 59.9995C163.841 59.9995 165.127 59.5254 166.075 58.6815C167.023 57.8376 167.555 56.693 167.555 55.4995ZM119 99H163C164.34 99 165.625 99.4741 166.573 100.318C167.521 101.162 168.053 102.307 168.053 103.5C168.053 104.693 167.521 105.838 166.573 106.682C165.625 107.526 164.34 108 163 108H119V99ZM163 147H119V156H163C164.351 156 165.646 155.526 166.601 154.682C167.556 153.838 168.093 152.693 168.093 151.5C168.093 150.307 167.556 149.162 166.601 148.318C165.646 147.474 164.351 147 163 147ZM92 98H104V110H92V98ZM84 98C84 93.5817 87.5817 90 92 90H104C108.418 90 112 93.5817 112 98V110C112 114.418 108.418 118 104 118H92C87.5817 118 84 114.418 84 110V98ZM104 144H92V156H104V144ZM92 136C87.5817 136 84 139.582 84 144V156C84 160.418 87.5817 164 92 164H104C108.418 164 112 160.418 112 156V144C112 139.582 108.418 136 104 136H92ZM43 40H62C63.1046 40 64 40.8954 64 42V61C64 62.1046 63.1046 63 62 63H43C41.8954 63 41 62.1046 41 61V42C41 40.8954 41.8954 40 43 40ZM33 42C33 36.4771 37.4772 32 43 32H62C67.5228 32 72 36.4772 72 42V61C72 66.5228 67.5228 71 62 71H43C37.4771 71 33 66.5228 33 61V42Z" />
</svg>
