<svg xmlns="http://www.w3.org/2000/svg" viewBox="0 0 1648.68 354.38">
<g id="Calque_2" data-name="Calque 2">
<g id="Calque_2-2" data-name="Calque 2"><path d="M177.11,144.45l.61,209.93c0-53.46-40.31-67.8-89.17-67.8H0V47.77H88.55C137.41,47.77,177.11,91,177.11,144.45Z"/><path d="M321.07,141.67h-46.8V94.9H321V47.76H279.79c-48.87,0-88.56,43.21-88.56,96.7l.17,209.91c0-53.45,39.52-67.8,88.39-67.8h88.56V189.08H321.07ZM368.24,94.9h.11"/><rect x="367.24" y="49.55" width="1.9" height="1.34"/><rect x="413.91" width="47.28" height="47.28"/><rect x="366.82" y="47.29" width="47.28" height="47.28"/><rect x="414.11" y="94.38" width="47.28" height="47.28"/><rect x="320.26" y="93.87" width="47.28" height="47.28"/><rect x="461.47" y="47.6" width="46.91" height="46.91"/><polygon points="786.14 252.49 722.87 47.91 712.97 47.91 649.7 252.49 582.97 47.91 566.97 47.91 644.91 287.21 654.75 287.21 717.92 83.91 781.09 287.21 790.93 287.21 868.88 47.91 852.87 47.91 786.14 252.49"/><polygon points="909.96 161.51 998.8 161.51 998.8 146.63 909.96 146.63 909.96 62.79 1021.84 62.79 1021.84 47.91 894.42 47.91 894.42 287.21 1025.12 287.21 1025.12 272.33 909.96 272.33 909.96 161.51"/><path d="M1154.71,161.51h88.52v76.54a103.38,103.38,0,0,1-80.1,37.57c-31.07,0-56.89-10.39-76.74-30.88s-30-46.48-30-77.17c0-30,9.93-55.87,29.54-76.74s44.51-31.33,74.23-31.33S1215,70.42,1234.88,92l3,3.3L1249,84.92l-3-3.28a109.9,109.9,0,0,0-38.22-27.25,118.6,118.6,0,0,0-47.69-9.77c-34,0-62.74,11.93-85.32,35.44s-34,52.91-34,87.51c0,35.07,11.62,64.63,34.53,87.86s52.44,35.07,87.75,35.07a118.52,118.52,0,0,0,54.7-12.84c16.55-8.5,30-19.74,40.06-33.41l.87-1.18V146.63h-104Z"/><path d="M1378,47.91l-102.54,239.3h16.32l33.55-78.65h114.22l33.88,78.65h16.32L1387.22,47.91ZM1331.82,193.7l50.79-118.44,50.8,118.44Z"/><path d="M1603.54,164.77c-4.65-2-11.69-4.75-21.1-8.31-9.13-3.43-16.44-6.42-21.72-8.91a131,131,0,0,1-16.86-9.71,35.3,35.3,0,0,1-12.3-13.4,40.89,40.89,0,0,1-4-18.41c0-14.91,5.13-26.07,15.68-34.13,10.78-8.23,22.59-12.4,35.11-12.4,19.53,0,35.38,6.65,48.43,20.33l3.28,3.44L1640.55,72l-3-3c-16.14-16.17-36-24.36-59.11-24.36-16,0-31.17,5.23-45,15.55-14.18,10.6-21.37,26-21.37,45.86a52.64,52.64,0,0,0,4.34,21.55,50.59,50.59,0,0,0,10.67,15.88,81.55,81.55,0,0,0,16,11.69A137.73,137.73,0,0,0,1561,164q7.9,3.13,19.45,7.58c7.58,2.93,13.55,5.37,17.81,7.28,23.51,11.14,34.94,26.61,34.94,47.29,0,15-5.09,26.7-15.56,35.77-10.66,9.23-23.16,13.71-38.21,13.71-28,0-49.07-11.59-64.34-35.44l-2.6-4.06-12.57,9.41,2.45,3.55c19,27.49,44.83,41.42,76.74,41.42,19.72,0,36.38-6,49.56-17.95s20.06-27.63,20.06-46.41C1648.68,198.42,1633.5,177.78,1603.54,164.77Z"/></g></g></svg>
