<svg viewBox="0 0 195 195" xmlns="http://www.w3.org/2000/svg">
<path fill-rule="evenodd" clip-rule="evenodd" d="M175 8H20C13.3726 8 8 13.3726 8 20V175C8 181.627 13.3726 187 20 187H175C181.627 187 187 181.627 187 175V20C187 13.3726 181.627 8 175 8ZM20 0C8.95431 0 0 8.9543 0 20V175C0 186.046 8.9543 195 20 195H175C186.046 195 195 186.046 195 175V20C195 8.95431 186.046 0 175 0H20ZM83.5898 47.5411C83.6622 46.993 83.7 46.445 83.7 45.9C83.7 38.4062 76.9496 32.3928 69.4589 33.4103C67.2759 29.5263 63.1179 27 58.5 27C53.8821 27 49.7241 29.5263 47.5411 33.4103C40.0347 32.3928 33.3 38.4062 33.3 45.9C33.3 46.445 33.3378 46.993 33.4103 47.5411C29.5263 49.7272 27 53.8853 27 58.5C27 63.1147 29.5263 67.2728 33.4103 69.4589C33.3376 70.0029 33.3008 70.5511 33.3 71.1C33.3 78.5938 40.0347 84.5915 47.5411 83.5898C49.7241 87.4737 53.8821 90 58.5 90C63.1179 90 67.2759 87.4737 69.4589 83.5898C76.9496 84.5915 83.7 78.5938 83.7 71.1C83.7 70.5551 83.6622 70.007 83.5898 69.4589C87.4737 67.2728 90 63.1147 90 58.5C90 53.8853 87.4737 49.7272 83.5898 47.5411ZM55.2083 72.4104L43.6572 60.7113L48.1428 56.2887L55.2523 63.4896L68.8824 49.9635L73.3176 54.4365L55.2083 72.4104ZM83.7 124.9C83.7 125.445 83.6622 125.993 83.5898 126.541C87.4737 128.727 90 132.885 90 137.5C90 142.115 87.4737 146.273 83.5898 148.459C83.6622 149.007 83.7 149.555 83.7 150.1C83.7 157.594 76.9496 163.591 69.4589 162.59C67.2759 166.474 63.1179 169 58.5 169C53.8821 169 49.7241 166.474 47.5411 162.59C40.0347 163.591 33.3 157.594 33.3 150.1C33.3008 149.551 33.3376 149.003 33.4103 148.459C29.5263 146.273 27 142.115 27 137.5C27 132.885 29.5263 128.727 33.4103 126.541C33.3378 125.993 33.3 125.445 33.3 124.9C33.3 117.406 40.0347 111.393 47.5411 112.41C49.7241 108.526 53.8821 106 58.5 106C63.1179 106 67.2759 108.526 69.4589 112.41C76.9496 111.393 83.7 117.406 83.7 124.9ZM43.6572 139.711L55.2083 151.41L73.3176 133.437L68.8824 128.964L55.2523 142.49L48.1428 135.289L43.6572 139.711ZM161.59 47.5411C161.662 46.993 161.7 46.445 161.7 45.9C161.7 38.4062 154.95 32.3928 147.459 33.4103C145.276 29.5263 141.118 27 136.5 27C131.882 27 127.724 29.5263 125.541 33.4103C118.035 32.3928 111.3 38.4062 111.3 45.9C111.3 46.445 111.338 46.993 111.41 47.5411C107.526 49.7272 105 53.8853 105 58.5C105 63.1147 107.526 67.2728 111.41 69.4589C111.338 70.0029 111.301 70.5511 111.3 71.1C111.3 78.5938 118.035 84.5915 125.541 83.5898C127.724 87.4737 131.882 90 136.5 90C141.118 90 145.276 87.4737 147.459 83.5898C154.95 84.5915 161.7 78.5938 161.7 71.1C161.7 70.5551 161.662 70.007 161.59 69.4589C165.474 67.2728 168 63.1147 168 58.5C168 53.8853 165.474 49.7272 161.59 47.5411ZM133.208 72.4104L121.657 60.7113L126.143 56.2887L133.252 63.4896L146.882 49.9635L151.318 54.4365L133.208 72.4104ZM136.5 102C131.31 102 126.566 104.418 123.495 108.301C114.786 108.499 107.522 115.667 107.305 124.493C103.421 127.564 101 132.309 101 137.5C101 142.691 103.421 147.436 107.305 150.507C107.522 159.341 114.792 166.486 123.493 166.696C126.563 170.58 131.308 173 136.5 173C141.692 173 146.438 170.58 149.508 166.695C158.195 166.484 165.477 159.341 165.695 150.507C169.579 147.436 172 142.691 172 137.5C172 132.309 169.579 127.564 165.695 124.493C165.477 115.666 158.201 108.501 149.505 108.301C146.435 104.418 141.69 102 136.5 102ZM129.028 114.37C130.517 111.722 133.356 110 136.5 110C139.644 110 142.483 111.722 143.972 114.37L145.304 116.74L147.997 116.374C153.05 115.688 157.7 119.792 157.7 124.9C157.7 125.26 157.675 125.633 157.624 126.017L157.27 128.7L159.628 130.027C162.279 131.519 164 134.36 164 137.5C164 140.64 162.279 143.481 159.628 144.973L157.27 146.3L157.624 148.983C157.675 149.367 157.7 149.74 157.7 150.1C157.7 155.199 153.056 159.303 147.989 158.625L145.301 158.266L143.972 160.63C142.483 163.278 139.644 165 136.5 165C133.356 165 130.517 163.278 129.028 160.63L127.7 158.266L125.012 158.625C119.931 159.303 115.302 155.203 115.3 150.103C115.301 149.73 115.326 149.358 115.375 148.988L115.734 146.302L113.372 144.973C110.721 143.481 109 140.64 109 137.5C109 134.36 110.721 131.519 113.372 130.027L115.73 128.7L115.376 126.017C115.325 125.633 115.3 125.26 115.3 124.9C115.3 119.79 119.937 115.687 125.004 116.374L127.697 116.739L129.028 114.37Z"/>
</svg>
