<svg viewBox="0 0 195 195" xmlns="http://www.w3.org/2000/svg">
<path fill-rule="evenodd" clip-rule="evenodd" d="M20 8H175C181.627 8 187 13.3726 187 20V175C187 181.627 181.627 187 175 187H20C13.3726 187 8 181.627 8 175V20C8 13.3726 13.3726 8 20 8ZM0 20C0 8.9543 8.95431 0 20 0H175C186.046 0 195 8.95431 195 20V175C195 186.046 186.046 195 175 195H20C8.9543 195 0 186.046 0 175V20ZM27 55C27 49.4771 31.4772 45 37 45H159C164.523 45 169 49.4772 169 55V96C169 101.523 164.523 106 159 106H152.055C148.542 101.933 143.104 99.6849 137.494 100.565C134.423 98.0104 130.573 96.744 126.72 96.8764C128.186 93.549 129 89.8696 129 86C129 71.0883 116.912 59 102 59C87.0883 59 75 71.0883 75 86C75 93.9294 78.4182 101.06 83.8613 106H37C31.4772 106 27 101.523 27 96V55ZM121.556 96.0882C123.118 93.0664 124 89.6362 124 86C124 73.8497 114.15 64 102 64C89.8497 64 80 73.8497 80 86C80 91.8061 82.2492 97.0868 85.9237 101.019V87.2539C85.9237 78.3535 93.0745 71 102.021 71C110.967 71 118.118 78.3535 118.118 87.2539V94.8971C119.299 95.1603 120.453 95.5584 121.556 96.0882ZM98.9593 87.2539C98.9593 85.1442 100.49 84.0877 102.02 84.0869C102.339 84.0867 102.657 84.1321 102.961 84.2232C104.121 84.5704 105.081 85.5803 105.081 87.2539V116.648C105.081 118.133 106.281 119.336 107.76 119.336H108.908C110.387 119.336 111.587 118.133 111.587 116.648V110.77C111.587 106.55 117.709 106.543 117.709 110.77V116.648C117.709 118.133 118.908 119.336 120.387 119.336H121.536C123.015 119.336 124.214 118.133 124.214 116.648V113.121C124.214 108.902 130.337 108.895 130.337 113.121V116.648C130.337 118.133 131.536 119.336 133.015 119.336H134.163C135.643 119.336 136.842 118.133 136.842 116.648C136.842 112.429 142.964 112.422 142.964 116.648V130.758C142.964 131.008 142.936 131.258 142.88 131.501L138.288 151.489C137.957 152.931 136.733 153.938 135.311 153.938H105.464C104.499 153.938 103.579 153.454 103.004 152.645L84.6369 126.777C82.2252 123.381 87.1471 119.585 89.5578 122.98L94.099 129.376C95.6048 131.497 98.9591 130.432 98.9591 127.817V106H98.9593V87.2539ZM99.7871 76.229C100.464 76.0883 101.163 76.0101 101.878 76.0009C101.925 76.0003 101.973 76 102.021 76H102.021C102.786 76 103.533 76.0789 104.254 76.229C109.306 77.2802 113.118 81.8242 113.118 87.2539V99.6221C114.137 99.4789 115.166 99.4801 116.175 99.6221C116.61 99.6833 117.04 99.7705 117.465 99.8835C117.89 99.9966 118.309 100.135 118.719 100.3L118.719 100.3C120.142 100.87 121.465 101.747 122.592 102.919C123.142 102.659 123.706 102.447 124.279 102.284C126.173 101.745 128.163 101.733 130.041 102.223C132.252 102.8 134.307 104.073 135.863 106H135.862C135.896 106.042 135.93 106.084 135.964 106.127C136.28 106.005 136.597 105.898 136.915 105.807C138.862 105.249 140.824 105.264 142.64 105.74C142.927 105.816 143.209 105.902 143.488 106H143.487C147.743 107.493 151 111.566 151 116.648V130.758C151 131.617 150.903 132.474 150.711 133.312L146.119 153.3C144.95 158.389 140.468 162 135.311 162H105.464C101.905 162 98.5389 160.251 96.4591 157.323L78.0943 131.455C74.538 126.447 75.6158 119.47 80.5302 115.809C83.6793 113.463 87.5905 113.074 90.9235 114.319V87.2539C90.9235 81.8241 94.735 77.2801 99.7871 76.229Z" />
</svg>
