<svg viewBox="0 0 195 195" xmlns="http://www.w3.org/2000/svg">
<path fill-rule="evenodd" clip-rule="evenodd" d="M175 8H20C13.3726 8 8 13.3726 8 20V175C8 181.627 13.3726 187 20 187H175C181.627 187 187 181.627 187 175V20C187 13.3726 181.627 8 175 8ZM20 0C8.95431 0 0 8.9543 0 20V175C0 186.046 8.9543 195 20 195H175C186.046 195 195 186.046 195 175V20C195 8.95431 186.046 0 175 0H20ZM48 72H38V82H48V72ZM30 64V90H56V64H30ZM48 104H38V114H48V104ZM30 96V122H56V96H30ZM70 72H112V82H70V72ZM62 90V64H120V90H62ZM48 136H38V146H48V136ZM30 128V154H56V128H30ZM70 104H112V114H70V104ZM62 122V96H120V122H62ZM158 72H134V82H158V72ZM126 64V90H166V64H126ZM70 136H112V146H70V136ZM62 154V128H120V154H62ZM158 104H134V114H158V104ZM126 96V122H166V96H126ZM134 136H158V146H134V136ZM126 154V128H166V154H126ZM68 42C64.6863 42 62 44.6863 62 48C62 51.3137 64.6863 54 68 54H114C117.314 54 120 51.3137 120 48C120 44.6863 117.314 42 114 42H68ZM126 48C126 44.6863 128.686 42 132 42H160C163.314 42 166 44.6863 166 48C166 51.3137 163.314 54 160 54H132C128.686 54 126 51.3137 126 48ZM36 42C32.6863 42 30 44.6863 30 48C30 51.3137 32.6863 54 36 54H50C53.3137 54 56 51.3137 56 48C56 44.6863 53.3137 42 50 42H36Z"/>
</svg>
