<svg viewBox="0 0 195 195" xmlns="http://www.w3.org/2000/svg">
<path fill-rule="evenodd" clip-rule="evenodd" d="M20 8H175C181.627 8 187 13.3726 187 20V175C187 181.627 181.627 187 175 187H20C13.3726 187 8 181.627 8 175V20C8 13.3726 13.3726 8 20 8ZM0 20C0 8.9543 8.95431 0 20 0H175C186.046 0 195 8.95431 195 20V175C195 186.046 186.046 195 175 195H20C8.9543 195 0 186.046 0 175V20ZM30.0523 55.2648L38.9384 49.1115V30.0001C38.9384 28.8955 39.8338 28.0001 40.9384 28.0001L128 28C129.105 28 130 28.8954 130 30L130 81C130 82.1046 129.104 83 128 83H40.9383C39.8338 83 38.9383 82.1045 38.9383 81L38.9384 61.4183L30.0523 55.2648ZM30.9384 44.9204L16 55.2647L30.9384 65.6093L30.9383 80.9999C30.9383 86.5228 35.4155 91 40.9383 91L128 91C133.523 91 138 86.5229 138 81L138 30C138 24.4772 133.523 20 128 20L40.9384 20.0001C35.4156 20.0001 30.9384 24.4772 30.9384 30.0001L30.9384 44.9204ZM53 43.5C53 42.1193 54.1193 41 55.5 41H111.5C112.881 41 114 42.1193 114 43.5C114 44.8807 112.881 46 111.5 46H55.5C54.1193 46 53 44.8807 53 43.5ZM55.5 53C54.1193 53 53 54.1193 53 55.5C53 56.8807 54.1193 58 55.5 58H111.5C112.881 58 114 56.8807 114 55.5C114 54.1193 112.881 53 111.5 53H55.5ZM53 67.5C53 66.1193 54.1193 65 55.5 65H89.5C90.8807 65 92 66.1193 92 67.5C92 68.8807 90.8807 70 89.5 70H55.5C54.1193 70 53 68.8807 53 67.5ZM67 175C61.4772 175 57 170.523 57 165L57.0001 114C57.0001 108.477 61.4772 104 67.0001 104H154.062C159.585 104 164.062 108.477 164.062 114L164.062 129.391L179 139.735L164.062 150.08V165C164.062 170.523 159.584 175 154.062 175L67 175ZM89 139.5C89 144.194 85.1944 148 80.5 148C75.8056 148 72 144.194 72 139.5C72 134.806 75.8056 131 80.5 131C85.1944 131 89 134.806 89 139.5ZM109.5 148C114.194 148 118 144.194 118 139.5C118 134.806 114.194 131 109.5 131C104.806 131 101 134.806 101 139.5C101 144.194 104.806 148 109.5 148ZM147 139.5C147 144.194 143.194 148 138.5 148C133.806 148 130 144.194 130 139.5C130 134.806 133.806 131 138.5 131C143.194 131 147 134.806 147 139.5Z" />
</svg>
