<svg viewBox="0 0 195 195" xmlns="http://www.w3.org/2000/svg">
<path fill-rule="evenodd" clip-rule="evenodd" d="M20 8H175C181.627 8 187 13.3726 187 20V175C187 181.627 181.627 187 175 187H20C13.3726 187 8 181.627 8 175V20C8 13.3726 13.3726 8 20 8ZM0 20C0 8.9543 8.95431 0 20 0H175C186.046 0 195 8.95431 195 20V175C195 186.046 186.046 195 175 195H20C8.9543 195 0 186.046 0 175V20ZM158.568 13.2179L175.634 27.2117C176.122 27.6122 176.122 28.3878 175.634 28.7883L158.568 42.7821C157.932 43.3019 157 42.8332 157 41.9938V32L32 32L32 157H41.9937C42.8332 157 43.3019 157.932 42.7821 158.568L28.7883 175.634C28.3878 176.122 27.6122 176.122 27.2117 175.634L13.2179 158.568C12.6981 157.932 13.1668 157 14.0063 157H24V32L24 24H32L157 24V14.0063C157 13.1668 157.932 12.6981 158.568 13.2179ZM62.3933 70.0236C67.0288 70.0236 70.7866 66.4365 70.7866 62.0118C70.7866 57.5871 67.0288 54 62.3933 54C57.7579 54 54 57.5871 54 62.0118C54 66.4365 57.7579 70.0236 62.3933 70.0236ZM157.002 64.8193V58.7604C157.002 57.0874 155.795 55.731 154.306 55.731H83.5281C82.0394 55.731 80.8325 57.0874 80.8325 58.7604V64.8193C80.8325 66.4924 82.0394 67.8488 83.5281 67.8488H154.306C155.795 67.8488 157.002 66.4924 157.002 64.8193ZM157.002 87.7675V93.8264C157.002 95.4994 155.795 96.8559 154.306 96.8559H83.5281C82.0394 96.8559 80.8325 95.4994 80.8325 93.8264V87.7675C80.8325 86.0945 82.0394 84.738 83.5281 84.738H154.306C155.795 84.738 157.002 86.0945 157.002 87.7675ZM62.3933 99.0307C67.0288 99.0307 70.7866 95.4436 70.7866 91.0189C70.7866 86.5941 67.0288 83.0071 62.3933 83.0071C57.7579 83.0071 54 86.5941 54 91.0189C54 95.4436 57.7579 99.0307 62.3933 99.0307ZM157.002 116.775V122.833C157.002 124.507 155.795 125.863 154.306 125.863H83.5281C82.0394 125.863 80.8325 124.507 80.8325 122.833V116.775C80.8325 115.102 82.0394 113.745 83.5281 113.745H154.306C155.795 113.745 157.002 115.102 157.002 116.775ZM62.3933 128.038C67.0288 128.038 70.7866 124.451 70.7866 120.026C70.7866 115.601 67.0288 112.014 62.3933 112.014C57.7579 112.014 54 115.601 54 120.026C54 124.451 57.7579 128.038 62.3933 128.038ZM157.002 145.781V151.84C157.002 153.513 155.795 154.87 154.306 154.87H83.5281C82.0394 154.87 80.8325 153.513 80.8325 151.84V145.781C80.8325 144.108 82.0394 142.752 83.5281 142.752H154.306C155.795 142.752 157.002 144.108 157.002 145.781ZM62.3933 157.045C67.0288 157.045 70.7866 153.458 70.7866 149.033C70.7866 144.608 67.0288 141.021 62.3933 141.021C57.7579 141.021 54 144.608 54 149.033C54 153.458 57.7579 157.045 62.3933 157.045Z" />
</svg>
