<svg viewBox="0 0 195 195" xmlns="http://www.w3.org/2000/svg">
<path fill-rule="evenodd" clip-rule="evenodd" d="M175 8H20C13.3726 8 8 13.3726 8 20V175C8 181.627 13.3726 187 20 187H175C181.627 187 187 181.627 187 175V20C187 13.3726 181.627 8 175 8ZM20 0C8.95431 0 0 8.9543 0 20V175C0 186.046 8.9543 195 20 195H175C186.046 195 195 186.046 195 175V20C195 8.95431 186.046 0 175 0H20ZM84.0333 87.3375H93.5595V125.946C93.5595 126.514 94.0236 126.978 94.5908 126.978H102.325C102.892 126.978 103.356 126.514 103.356 125.946V87.3375H112.908C113.772 87.3375 114.249 86.3449 113.72 85.6746L99.2829 67.3957C99.1865 67.2724 99.0632 67.1727 98.9225 67.1042C98.7818 67.0356 98.6273 67 98.4708 67C98.3143 67 98.1599 67.0356 98.0191 67.1042C97.8784 67.1727 97.7552 67.2724 97.6587 67.3957L83.2212 85.6617C82.6927 86.3449 83.1697 87.3375 84.0333 87.3375ZM109.846 36C110.422 36 110.985 36.1242 111.5 36.3581V58V61.5H115H136.95C136.983 61.7071 137 61.9178 137 62.1302V132C137 134.209 135.209 136 133 136H63C60.7909 136 59 134.209 59 132V40C59 37.7909 60.7909 36 63 36H109.846ZM118.5 42.7383L130.806 54.5H118.5V42.7383ZM133 144H63C56.3726 144 51 138.627 51 132V40C51 33.3726 56.3726 28 63 28H109.846C112.935 28 115.904 29.191 118.137 31.3251L141.291 53.4553C143.66 55.7193 145 58.8535 145 62.1302V132C145 138.627 139.627 144 133 144ZM51 164H145V154H51V164Z" />
</svg>
