<svg viewBox="0 0 195 195" xmlns="http://www.w3.org/2000/svg">
<path fill-rule="evenodd" clip-rule="evenodd" d="M20 8H175C181.627 8 187 13.3726 187 20V175C187 181.627 181.627 187 175 187H20C13.3726 187 8 181.627 8 175V20C8 13.3726 13.3726 8 20 8ZM0 20C0 8.9543 8.95431 0 20 0H175C186.046 0 195 8.95431 195 20V175C195 186.046 186.046 195 175 195H20C8.9543 195 0 186.046 0 175V20ZM78 32C73.5817 32 70 35.5817 70 40V69C70 73.4183 73.5817 77 78 77H94.1633V94.4315H51V119H34C29.5817 119 26 122.582 26 127V156C26 160.418 29.5817 164 34 164H74C78.4183 164 82 160.418 82 156V127C82 122.582 78.4183 119 74 119H58.6735V102.147H137.327V119H121C116.582 119 113 122.582 113 127V156C113 160.418 116.582 164 121 164H161C165.418 164 169 160.418 169 156V127C169 122.582 165.418 119 161 119H145V94.4315H101.837V77H118C122.418 77 126 73.4183 126 69V40C126 35.5817 122.418 32 118 32H78Z" />
</svg>
