<svg viewBox="0 0 195 195" xmlns="http://www.w3.org/2000/svg">
<path fill-rule="evenodd" clip-rule="evenodd" d="M46 8H175C181.627 8 187 13.3726 187 20V175C187 181.627 181.627 187 175 187H20C13.3726 187 8 181.627 8 175V20C8 13.3726 13.3726 8 20 8H33V40.0909V53.9091V91.0909V104.909V142.091V155V155.909H79.3014V168L98 149L79.3014 130V142.091H46V104.909H79.3014V117L98 98L79.3014 79V91.0909H46V53.9091H79.3014V66L98 47L79.3014 28V40.0909H46V8ZM0 20C0 8.9543 8.95431 0 20 0H175C186.046 0 195 8.95431 195 20V175C195 186.046 186.046 195 175 195H20C8.9543 195 0 186.046 0 175V20ZM153 46.5C153 53.2229 147.363 59 140 59C132.637 59 127 53.2229 127 46.5C127 39.7771 132.637 34 140 34C147.363 34 153 39.7771 153 46.5ZM161 46.5C161 57.8218 151.598 67 140 67C128.402 67 119 57.8218 119 46.5C119 35.1782 128.402 26 140 26C151.598 26 161 35.1782 161 46.5ZM140 110C147.363 110 153 104.223 153 97.5C153 90.7771 147.363 85 140 85C132.637 85 127 90.7771 127 97.5C127 104.223 132.637 110 140 110ZM140 118C151.598 118 161 108.822 161 97.5C161 86.1782 151.598 77 140 77C128.402 77 119 86.1782 119 97.5C119 108.822 128.402 118 140 118ZM153 148.5C153 155.223 147.363 161 140 161C132.637 161 127 155.223 127 148.5C127 141.777 132.637 136 140 136C147.363 136 153 141.777 153 148.5ZM161 148.5C161 159.822 151.598 169 140 169C128.402 169 119 159.822 119 148.5C119 137.178 128.402 128 140 128C151.598 128 161 137.178 161 148.5Z" />
</svg>
