<svg viewBox="0 0 195 195" xmlns="http://www.w3.org/2000/svg">
<path fill-rule="evenodd" clip-rule="evenodd" d="M20 8H175C181.627 8 187 13.3726 187 20V175C187 181.627 181.627 187 175 187H20C13.3726 187 8 181.627 8 175V20C8 13.3726 13.3726 8 20 8ZM0 20C0 8.9543 8.95431 0 20 0H175C186.046 0 195 8.95431 195 20V175C195 186.046 186.046 195 175 195H20C8.9543 195 0 186.046 0 175V20ZM97.912 23.3687C78.3442 23.3687 59.5778 31.142 45.7412 44.9785C31.9046 58.8151 24.1313 77.5815 24.1313 97.1493C24.1313 101.775 24.627 106.232 25.5496 110.514C25.6524 110.991 25.8363 111.43 26.0839 111.819C26.4617 113.635 28.0715 115 30 115H43C45.2091 115 47 113.209 47 111C47 108.791 45.2091 107 43 107H33.0082C32.4357 103.826 32.1313 100.543 32.1313 97.1493C32.1313 79.7032 39.0618 62.9716 51.3981 50.6354C62.5713 39.4621 77.3503 32.7234 93 31.5522V42C93 44.2091 94.7909 46 97 46C99.2091 46 101 44.2091 101 42V31.4411C117.322 32.2076 132.82 39.0289 144.426 50.6354C156.762 62.9716 163.693 79.7032 163.693 97.1493C163.693 100.543 163.388 103.826 162.816 107H153C150.791 107 149 108.791 149 111C149 113.209 150.791 115 153 115H166C168.081 115 169.791 113.411 169.982 111.379C170.11 111.108 170.209 110.819 170.275 110.514C171.197 106.232 171.693 101.775 171.693 97.1493C171.693 77.5815 163.919 58.8151 150.083 44.9785C136.246 31.142 117.48 23.3687 97.912 23.3687ZM60.1931 59.4304C61.7552 57.8683 64.2878 57.8683 65.8499 59.4304L89.7236 83.3041C92.1384 81.8418 94.9709 81 98 81C106.837 81 114 88.1634 114 97C114 105.837 106.837 113 98 113C89.1634 113 82 105.837 82 97C82 94.0948 82.7743 91.3704 84.1278 89.022L60.1931 65.0872C58.631 63.5251 58.631 60.9925 60.1931 59.4304ZM78 145C78 139.477 82.4771 135 88 135H107C112.523 135 117 139.477 117 145V164C117 169.523 112.523 174 107 174H88C82.4771 174 78 169.523 78 164V145ZM99.7675 141.349V152.233H94.3257V141.349H88.8838V157.675H99.7675V168.558H105.209V141.349H99.7675Z" />
</svg>
