<svg viewBox="0 0 195 195" xmlns="http://www.w3.org/2000/svg">
<path fill-rule="evenodd" clip-rule="evenodd" d="M93 8H54V47H93V8ZM93 55H54V94H93V55ZM46 55V94H8V55H46ZM46 102H8V141H46V102ZM46 149H8V175C8 181.627 13.3726 187 20 187H46V149ZM54 149H93V187H54V149ZM93 141H54V102H93V141ZM101 149V187H140V149H101ZM140 141H101V102H140V141ZM148 149V187H175C181.627 187 187 181.627 187 175V149H148ZM187 141H148V102H187V141ZM0 145V175C0 186.046 8.9543 195 20 195H175C186.046 195 195 186.046 195 175V20C195 8.95431 186.046 0 175 0H148H140H101H93H54H46H20C8.95431 0 0 8.9543 0 20V51V98V145ZM148 94H187V55H148V94ZM101 94H140V55H101V94ZM46 47V8H20C13.3726 8 8 13.3726 8 20V47H46ZM140 47H101V8H140V47ZM187 47H148V8H175C181.627 8 187 13.3726 187 20V47ZM110 17H131V38H110V17ZM41 71H13V78H41V71ZM153 164H182V171H153V164ZM73.5 136C81.5081 136 88 129.508 88 121.5C88 113.492 81.5081 107 73.5 107C65.4919 107 59 113.492 59 121.5C59 129.508 65.4919 136 73.5 136Z" />
</svg>
