<svg viewBox="0 0 195 195" xmlns="http://www.w3.org/2000/svg">
<path fill-rule="evenodd" clip-rule="evenodd" d="M20 8H175C181.627 8 187 13.3726 187 20V175C187 181.627 181.627 187 175 187H20C13.3726 187 8 181.627 8 175V20C8 13.3726 13.3726 8 20 8ZM0 20C0 8.9543 8.95431 0 20 0H175C186.046 0 195 8.95431 195 20V175C195 186.046 186.046 195 175 195H20C8.9543 195 0 186.046 0 175V20ZM102.743 60.6099C111.872 58.8032 118.743 50.9339 118.743 41.5C118.743 30.7304 109.789 22 98.7432 22C87.6975 22 78.7432 30.7304 78.7432 41.5C78.7432 50.9339 85.6142 58.8032 94.7432 60.6099V75.5459L76.7891 93.5H41.7432V142.5H49.7432V101.5H76.6971L98.2891 123.092L120.381 101H146.743V142H154.743V93H119.289L102.743 76.4541V60.6099ZM112.521 97.546L98.2891 83.3137L84.0568 97.546L98.2891 111.778L112.521 97.546ZM61.95 144.501L61.9465 144.501C61.2766 144.496 60.0001 144.486 59.1344 145.721L44.0444 164.947L35.1358 156.043C34.7858 155.669 34.3646 155.369 33.8969 155.161C33.4264 154.951 32.9184 154.838 32.4034 154.829C31.8884 154.82 31.3768 154.915 30.8992 155.108C30.4216 155.301 29.9877 155.588 29.6235 155.952C29.2592 156.316 28.9721 156.75 28.7792 157.228C28.5863 157.705 28.4915 158.217 28.5006 158.732C28.5097 159.247 28.6224 159.755 28.8321 160.225C29.0405 160.693 29.3404 161.114 29.7141 161.464L41.4767 173.227C41.8413 173.592 42.2757 173.879 42.754 174.072C43.2323 174.265 43.7445 174.359 44.2601 174.35C44.7758 174.34 45.2842 174.227 45.755 174.016C46.2257 173.806 46.6492 173.502 47.0001 173.125L47.0127 173.111L64.7602 150.915C65.4249 150.184 65.7815 149.224 65.7554 148.235C65.7291 147.241 65.3176 146.295 64.6076 145.599C63.8976 144.902 62.9447 144.508 61.95 144.501ZM140.886 174L140.886 174L151.243 163.643L151.243 163.643L140.886 174ZM161.601 174L161.601 174L165.743 169.857L165.743 169.857L161.601 174ZM155.386 159.5L165.743 149.143L165.743 149.143L155.386 159.5L155.386 159.5ZM156.8 159.5L167.158 149.143L161.601 143.586L151.243 153.943L140.886 143.586L135.329 149.143L145.686 159.5L135.329 169.857L140.886 175.414L151.243 165.057L161.601 175.414L167.158 169.857L156.8 159.5Z" />
</svg>
