<svg viewBox="0 0 195 195" xmlns="http://www.w3.org/2000/svg">
<path fill-rule="evenodd" clip-rule="evenodd" d="M175 8H20C13.3726 8 8 13.3726 8 20V175C8 181.627 13.3726 187 20 187H175C181.627 187 187 181.627 187 175V20C187 13.3726 181.627 8 175 8ZM20 0C8.95431 0 0 8.9543 0 20V175C0 186.046 8.9543 195 20 195H175C186.046 195 195 186.046 195 175V20C195 8.95431 186.046 0 175 0H20ZM75.0051 102H93.2727V78H102.727V102H119.995L138 141.991V177H57V141.991L75.0051 102ZM80.1767 110H93.2727V120.154H85L98 133L111 120.154H102.727V110H114.823L127.812 138.85H106.773V148.9H88.2273V138.85H67.1876L80.1767 110ZM72.4 22H123.6C127.13 22 130 24.8592 130 28.375V66.625C130 70.1408 127.13 73 123.6 73H72.4C68.8704 73 66 70.1408 66 66.625V28.375C66 24.8592 68.8704 22 72.4 22ZM123.6 30.0038V28.375H72.4V30.007L98 49.8396L123.6 30.0038ZM72.4 38.0778V66.625H123.606L123.6 38.0778L99.9648 56.3899C99.4044 56.8284 98.7125 57.0667 98 57.0667C97.2875 57.0667 96.5956 56.8284 96.0352 56.3899L72.4 38.0778Z" />
</svg>
