<svg viewBox="0 0 195 195" xmlns="http://www.w3.org/2000/svg">
<path fill-rule="evenodd" clip-rule="evenodd" d="M20 8H71V38H79V8H156L156 187H79V156H71V187H20C13.3726 187 8 181.627 8 175V20C8 13.3726 13.3726 8 20 8ZM164 187H175C181.627 187 187 181.627 187 175V20C187 13.3726 181.627 8 175 8H164L164 187ZM0 20C0 8.9543 8.95431 0 20 0H175C186.046 0 195 8.95431 195 20V175C195 186.046 186.046 195 175 195H20C8.9543 195 0 186.046 0 175V20ZM45.5 81L28 98L45.5 115V103.667H63V138.5C63 140.433 64.567 142 66.5 142C68.433 142 70 140.433 70 138.5V56.5C70 54.567 68.433 53 66.5 53C64.567 53 63 54.567 63 56.5V92.3333H45.5V81ZM103 81L120 98L103 115V103.667H86V138.5C86 140.433 84.433 142 82.5 142C80.567 142 79 140.433 79 138.5V56.5C79 54.567 80.567 53 82.5 53C84.433 53 86 54.567 86 56.5V92.3333H103V81Z" />
</svg>
