<svg viewBox="0 0 195 195" xmlns="http://www.w3.org/2000/svg">
<path fill-rule="evenodd" clip-rule="evenodd" d="M20 8H175C181.627 8 187 13.3726 187 20V175C187 181.627 181.627 187 175 187H20C13.3726 187 8 181.627 8 175V20C8 13.3726 13.3726 8 20 8ZM0 20C0 8.9543 8.95431 0 20 0H175C186.046 0 195 8.95431 195 20V175C195 186.046 186.046 195 175 195H20C8.9543 195 0 186.046 0 175V20ZM77.5633 29.2059C76.7409 28.9313 75.8515 28.9314 75.0291 29.2061C70.1833 30.8247 59.3301 34.5948 49.7191 37.9492C44.9069 39.6288 40.396 41.2077 37.0882 42.3667C35.4343 42.9462 34.0811 43.4208 33.1413 43.7505L31.6747 44.2652C30.066 44.8301 28.9922 46.3527 29 48.0577L29.5109 158.979C29.5165 160.19 30.0703 161.334 31.017 162.088C31.9638 162.843 33.202 163.129 34.3838 162.865L34.7828 162.775C35.0432 162.717 35.4256 162.631 35.9148 162.521C36.8931 162.301 38.2987 161.983 40.009 161.594C43.429 160.817 48.0704 159.753 52.9525 158.609C61.7006 156.559 71.4961 154.19 76.2587 152.76L118.288 166.794C119.111 167.069 120 167.069 120.822 166.794C125.681 165.172 136.336 161.397 145.73 158.045C150.438 156.366 154.844 154.786 158.073 153.627C159.687 153.048 161.008 152.573 161.925 152.243L163.354 151.729L163.356 151.728C164.944 151.156 166.002 149.649 166 147.96L165.87 34.6337C165.869 33.374 165.274 32.1885 164.265 31.4343C163.256 30.6801 161.95 30.4455 160.742 30.8008L159.296 31.2266C158.37 31.4997 157.037 31.893 155.409 32.3745C152.153 33.3374 147.716 34.6533 142.993 36.0648C134.362 38.6442 124.691 41.5677 119.565 43.2307L77.5633 29.2059ZM161.87 34.6383L160.742 30.8008C160.742 30.8008 160.742 30.8007 161.87 34.6383ZM33.5109 158.961L34.3838 162.865C34.3834 162.865 34.3833 162.865 33.5109 158.961ZM37.4879 153.963L37.0131 50.8703C37.784 50.6 38.7001 50.2788 39.7337 49.9167C43.0394 48.7584 47.5471 47.1806 52.3554 45.5024C59.292 43.0813 66.8331 40.4587 72.2964 38.584V145.579C67.4882 146.921 59.0993 148.952 51.1274 150.82C46.2677 151.959 41.6445 153.018 38.2355 153.793L37.4879 153.963ZM80.2964 145.674V38.5527L115.555 50.3259V157.447L80.2964 145.674ZM123.555 157.401V50.3519C128.808 48.6816 137.409 46.0833 145.284 43.7299C149.997 42.3212 154.427 41.0075 157.678 40.046L157.876 39.9872L157.997 145.154C157.25 145.422 156.366 145.74 155.37 146.098C152.144 147.256 147.743 148.833 143.042 150.511C136.28 152.923 128.928 155.532 123.555 157.401Z"/>
</svg>
