<svg viewBox="0 0 195 195" xmlns="http://www.w3.org/2000/svg">
<path fill-rule="evenodd" clip-rule="evenodd" d="M20 8H175C181.627 8 187 13.3726 187 20V175C187 181.627 181.627 187 175 187H20C13.3726 187 8 181.627 8 175V20C8 13.3726 13.3726 8 20 8ZM0 20C0 8.9543 8.95431 0 20 0H175C186.046 0 195 8.95431 195 20V175C195 186.046 186.046 195 175 195H20C8.9543 195 0 186.046 0 175V20ZM156 55H149.275C146.588 44.0907 136.739 36 125 36C113.261 36 103.412 44.0907 100.725 55H40C36.134 55 33 58.134 33 62C33 65.866 36.134 69 40 69H101.307C104.643 78.8837 113.991 86 125 86C136.009 86 145.357 78.8837 148.693 69H156C159.866 69 163 65.866 163 62C163 58.134 159.866 55 156 55ZM125 78C134.389 78 142 70.3888 142 61C142 51.6112 134.389 44 125 44C115.611 44 108 51.6112 108 61C108 70.3888 115.611 78 125 78ZM71 116C71 110.477 75.4771 106 81 106H114C119.523 106 124 110.477 124 116V149C124 154.523 119.523 159 114 159H81C75.4771 159 71 154.523 71 149V116ZM100.581 114.628V129.419H93.1861V114.628H85.7907V136.814H100.581V151.605H107.977V114.628H100.581Z" />
</svg>
