<svg viewBox="0 0 195 195" xmlns="http://www.w3.org/2000/svg">
<path fill-rule="evenodd" clip-rule="evenodd" d="M175 8H20C13.3726 8 8 13.3726 8 20V175C8 181.627 13.3726 187 20 187H175C181.627 187 187 181.627 187 175V20C187 13.3726 181.627 8 175 8ZM20 0C8.95431 0 0 8.9543 0 20V175C0 186.046 8.9543 195 20 195H175C186.046 195 195 186.046 195 175V20C195 8.95431 186.046 0 175 0H20ZM106 57V89.4H89V57H72V105.6H106V138H123V57H106ZM66 41H130C143.807 41 155 52.1929 155 66V130C155 143.807 143.807 155 130 155H66C52.1929 155 41 143.807 41 130V66C41 52.1929 52.1929 41 66 41ZM36 66C36 49.4315 49.4315 36 66 36H130C146.569 36 160 49.4315 160 66V130C160 146.569 146.569 160 130 160H66C49.4315 160 36 146.569 36 130V66Z" />
</svg>
