<svg viewBox="0 0 195 195" xmlns="http://www.w3.org/2000/svg">
<path fill-rule="evenodd" clip-rule="evenodd" d="M175 8H20C13.3726 8 8 13.3726 8 20V175C8 181.627 13.3726 187 20 187H175C181.627 187 187 181.627 187 175V20C187 13.3726 181.627 8 175 8ZM20 0C8.95431 0 0 8.95428 0 20V175C0 186.046 8.9543 195 20 195H175C186.046 195 195 186.046 195 175V20C195 8.95428 186.046 0 175 0H20ZM39.2998 32.9513C40.152 32.2274 41.2684 31.8933 42.3782 32.03L120.962 41.708C121.446 40.9582 122.015 40.2567 122.661 39.6179C125.005 37.3014 128.185 36 131.5 36C134.815 36 137.995 37.3014 140.339 39.6179C141.729 40.9919 142.758 42.6564 143.366 44.467L152.64 45.6091L167.436 34.3767C168.645 33.4587 170.27 33.3044 171.63 33.9786C172.991 34.6527 173.852 36.039 173.854 37.5573L174 145.654C174.002 146.802 173.509 147.896 172.648 148.657L156.412 162.998C155.553 163.756 154.411 164.11 153.275 163.97L42.7803 150.362L27.6532 159.565C26.4216 160.314 24.8821 160.343 23.6236 159.64C22.365 158.937 21.5821 157.611 21.5743 156.169L21.0001 50.3669C20.9936 49.1853 21.51 48.0613 22.4105 47.2964L39.2998 32.9513ZM143.249 52.5131C141.707 57.5697 137.791 64.8881 131.5 73C123.834 63.1148 119.695 54.4081 119.08 49.5366L45.8892 40.5228V142.685L149.764 155.477V53.3154L143.249 52.5131ZM37.8892 143.974V44.6456L29.0101 52.1873L29.5358 149.055L37.8892 143.974ZM157.764 51.7632V151.13L165.998 143.857L165.865 45.6131L157.764 51.7632ZM57 73.3523C57 77.8997 61.1661 87.2535 69.5 98C77.8339 87.2535 82 77.8997 82 73.3523C82 70.0763 80.683 66.9344 78.3388 64.6179C75.9946 62.3014 72.8152 61 69.5 61C66.1848 61 63.0054 62.3014 60.6612 64.6179C58.317 66.9344 57 70.0763 57 73.3523ZM74.5508 78.3434C73.2112 79.6671 71.3944 80.4108 69.5 80.4108C67.6056 80.4108 65.7888 79.6671 64.4492 78.3434C63.1097 77.0197 62.3571 75.2243 62.3571 73.3523C62.3571 71.4803 63.1097 69.6849 64.4492 68.3612C65.7888 67.0375 67.6056 66.2938 69.5 66.2938C71.3944 66.2938 73.2112 67.0375 74.5508 68.3612C75.8903 69.6849 76.6429 71.4803 76.6429 73.3523C76.6429 75.2243 75.8903 77.0197 74.5508 78.3434ZM85.5 135C77.1661 124.253 73 114.9 73 110.352C73 107.076 74.317 103.934 76.6612 101.618C79.0054 99.3014 82.1848 98 85.5 98C86.6957 98 87.8738 98.1693 89.0013 98.4944C89.0004 98.4465 89 98.3992 89 98.3523C89 95.0763 90.317 91.9344 92.6612 89.6179C95.0054 87.3014 98.1848 86 101.5 86C104.815 86 107.995 87.3014 110.339 89.6179C112.683 91.9344 114 95.0763 114 98.3523C114 102.9 109.834 112.253 101.5 123C99.6916 120.668 98.0794 118.402 96.6635 116.236C94.8297 121.166 91.1087 127.768 85.5 135ZM90.9581 105.799C91.4093 106.869 91.9386 108.003 92.5459 109.193C92.61 109.574 92.6429 109.961 92.6429 110.352C92.6429 112.224 91.8903 114.02 90.5508 115.343C89.2112 116.667 87.3944 117.411 85.5 117.411C83.6056 117.411 81.7888 116.667 80.4492 115.343C79.1097 114.02 78.3571 112.224 78.3571 110.352C78.3571 108.48 79.1097 106.685 80.4492 105.361C81.7888 104.037 83.6056 103.294 85.5 103.294C87.3944 103.294 89.2112 104.037 90.5508 105.361C90.6932 105.502 90.8291 105.648 90.9581 105.799ZM106.551 103.343C105.211 104.667 103.394 105.411 101.5 105.411C99.6056 105.411 97.7888 104.667 96.4492 103.343C95.1097 102.02 94.3571 100.224 94.3571 98.3523C94.3571 96.4803 95.1097 94.6849 96.4492 93.3612C97.7888 92.0375 99.6056 91.2938 101.5 91.2938C103.394 91.2938 105.211 92.0375 106.551 93.3612C107.89 94.6849 108.643 96.4803 108.643 98.3523C108.643 100.224 107.89 102.02 106.551 103.343ZM135.5 149C127.166 138.253 123 128.9 123 124.352C123 121.076 124.317 117.934 126.661 115.618C129.005 113.301 132.185 112 135.5 112C138.815 112 141.995 113.301 144.339 115.618C146.683 117.934 148 121.076 148 124.352C148 128.9 143.834 138.253 135.5 149ZM135.5 131.411C137.394 131.411 139.211 130.667 140.551 129.343C141.89 128.02 142.643 126.224 142.643 124.352C142.643 122.48 141.89 120.685 140.551 119.361C139.211 118.037 137.394 117.294 135.5 117.294C133.606 117.294 131.789 118.037 130.449 119.361C129.11 120.685 128.357 122.48 128.357 124.352C128.357 126.224 129.11 128.02 130.449 129.343C131.789 130.667 133.606 131.411 135.5 131.411ZM136.551 53.3434C135.211 54.6671 133.394 55.4108 131.5 55.4108C129.606 55.4108 127.789 54.6671 126.449 53.3434C125.11 52.0197 124.357 50.2243 124.357 48.3523C124.357 46.4803 125.11 44.6849 126.449 43.3612C127.789 42.0375 129.606 41.2938 131.5 41.2938C133.394 41.2938 135.211 42.0375 136.551 43.3612C137.89 44.6849 138.643 46.4803 138.643 48.3523C138.643 50.2243 137.89 52.0197 136.551 53.3434Z"/>
</svg>
