<svg viewBox="0 0 195 195" xmlns="http://www.w3.org/2000/svg">
<path fill-rule="evenodd" clip-rule="evenodd" d="M20 8H175C181.627 8 187 13.3726 187 20V175C187 181.627 181.627 187 175 187H20C13.3726 187 8 181.627 8 175V20C8 13.3726 13.3726 8 20 8ZM0 20C0 8.9543 8.95431 0 20 0H175C186.046 0 195 8.95431 195 20V175C195 186.046 186.046 195 175 195H20C8.9543 195 0 186.046 0 175V20ZM42.3782 32.03C41.2684 31.8933 40.152 32.2274 39.2998 32.9513L22.4105 47.2964C21.51 48.0614 20.9936 49.1853 21.0001 50.3669L21.5743 156.169C21.5821 157.611 22.365 158.937 23.6236 159.64C24.8821 160.343 26.4216 160.314 27.6532 159.565L42.7803 150.362L153.275 163.97C154.411 164.11 155.553 163.756 156.412 162.998L172.648 148.657C173.509 147.896 174.002 146.802 174 145.654L173.854 37.5573C173.852 36.039 172.991 34.6527 171.63 33.9786C170.27 33.3044 168.645 33.4587 167.436 34.3767L152.64 45.6091L42.3782 32.03ZM149.764 155.477L45.8892 142.685V40.5229L149.764 53.3154V155.477ZM37.8892 143.974V44.6456L29.0101 52.1873L29.5358 149.055L37.8892 143.974ZM157.764 151.13V51.7632L165.865 45.6131L165.998 143.857L157.764 151.13ZM98.5 123C84.8324 104.992 78 89.3185 78 81.6985C78 76.2089 80.1598 70.9442 84.0043 67.0624C87.8488 63.1807 93.0631 61 98.5 61C103.937 61 109.151 63.1807 112.996 67.0624C116.84 70.9442 119 76.2089 119 81.6985C119 89.3185 112.168 104.992 98.5 123ZM98.5 93.5262C101.607 93.5262 104.586 92.28 106.783 90.0619C108.98 87.8438 110.214 84.8354 110.214 81.6985C110.214 78.5616 108.98 75.5531 106.783 73.335C104.586 71.1169 101.607 69.8708 98.5 69.8708C95.3932 69.8708 92.4136 71.1169 90.2168 73.335C88.0199 75.5531 86.7857 78.5616 86.7857 81.6985C86.7857 84.8354 88.0199 87.8438 90.2168 90.0619C92.4136 92.28 95.3932 93.5262 98.5 93.5262ZM84.2757 121.691C86.314 120.839 87.2758 118.496 86.424 116.458C85.5722 114.419 83.2293 113.458 81.191 114.309C79.1395 115.167 77.2194 116.274 75.75 117.696C74.2695 119.13 73 121.146 73 123.666C73 126.319 74.4029 128.407 75.987 129.859C77.5684 131.308 79.6353 132.43 81.8515 133.289C86.3098 135.017 92.1972 136 98.5 136C104.803 136 110.69 135.017 115.148 133.289C117.365 132.43 119.432 131.308 121.013 129.859C122.597 128.407 124 126.319 124 123.666C124 121.288 122.866 119.351 121.495 117.941C120.142 116.548 118.373 115.458 116.49 114.605C114.477 113.694 112.107 114.587 111.196 116.599C110.285 118.612 111.177 120.982 113.19 121.893C114.524 122.497 115.335 123.081 115.758 123.516C115.813 123.573 115.858 123.624 115.894 123.667C115.83 123.743 115.738 123.842 115.608 123.961C115.013 124.506 113.932 125.18 112.257 125.829C108.934 127.118 104.071 128 98.5 128C92.9287 128 88.0661 127.118 84.7429 125.829C83.0684 125.18 81.9866 124.506 81.3921 123.961C81.2616 123.842 81.1696 123.743 81.1055 123.666C81.1561 123.606 81.2242 123.532 81.3148 123.444C81.8226 122.952 82.7691 122.32 84.2757 121.691ZM116.025 123.851C116.029 123.863 116.032 123.869 116.032 123.869C116.033 123.869 116.032 123.866 116.03 123.861C116.028 123.858 116.027 123.855 116.025 123.851ZM116.028 123.47C116.027 123.473 116.025 123.478 116.023 123.484C116.031 123.469 116.033 123.462 116.032 123.462C116.032 123.462 116.03 123.464 116.028 123.47ZM80.9677 123.462C80.9684 123.462 80.9722 123.469 80.9769 123.484C80.9694 123.469 80.967 123.462 80.9677 123.462ZM80.971 123.863C80.9724 123.86 80.9742 123.855 80.9762 123.849C80.9692 123.863 80.967 123.87 80.9676 123.87C80.968 123.87 80.9692 123.868 80.971 123.863Z"/>
</svg>
