<svg viewBox="0 0 195 195" xmlns="http://www.w3.org/2000/svg">
<path fill-rule="evenodd" clip-rule="evenodd" d="M175 8H20C13.3726 8 8 13.3726 8 20V175C8 181.627 13.3726 187 20 187H175C181.627 187 187 181.627 187 175V20C187 13.3726 181.627 8 175 8ZM20 0C8.95431 0 0 8.9543 0 20V175C0 186.046 8.9543 195 20 195H175C186.046 195 195 186.046 195 175V20C195 8.95431 186.046 0 175 0H20ZM108 116.178V96.6826H146.719C147.688 96.6826 148.618 96.2974 149.304 95.6117C149.99 94.926 150.375 93.9961 150.375 93.0264C150.375 92.0567 149.99 91.1267 149.304 90.441C148.618 89.7553 147.688 89.3701 146.719 89.3701H108V82.9639L107.976 82.218C107.852 80.4176 107.288 78.6913 106.351 77.1826H146.719C147.199 77.1826 147.674 77.088 148.118 76.9043C148.562 76.7206 148.965 76.4512 149.304 76.1117C149.644 75.7722 149.913 75.3692 150.097 74.9256C150.28 74.482 150.375 74.0065 150.375 73.5264C150.375 73.0462 150.28 72.5708 150.097 72.1272C149.913 71.6836 149.644 71.2805 149.304 70.941C148.965 70.6015 148.562 70.3322 148.118 70.1484C147.674 69.9647 147.199 69.8701 146.719 69.8701H105.281C104.312 69.8701 103.382 70.2553 102.696 70.941C102.13 71.5071 101.769 72.2397 101.66 73.0237C100.222 72.3549 98.6441 71.9998 97.0312 72H94.3125V36.9688L94.3466 36.4715C94.4668 35.5962 94.8998 34.794 95.5657 34.2132C96.2316 33.6325 97.0852 33.3125 97.9688 33.3125H154.031V33.3076L154.529 33.3466C155.404 33.4668 156.206 33.8998 156.787 34.5657C157.367 35.2316 157.687 36.0852 157.688 36.9688V112.522L157.653 113.019C157.533 113.894 157.1 114.696 156.434 115.277C155.768 115.858 154.915 116.178 154.031 116.178H108ZM40.9688 72H87V36.9688C86.9997 34.1894 88.0544 31.5135 89.9512 29.482C91.8479 27.4504 94.4452 26.2146 97.218 26.0244L97.9688 26H154.031C156.811 25.9997 159.486 27.0544 161.518 28.9512C163.55 30.8479 164.785 33.4452 164.976 36.218L165 36.9639V112.517C165 115.296 163.946 117.972 162.049 120.003C160.152 122.035 157.555 123.271 154.782 123.461L154.031 123.485H108V158.517C108 161.296 106.946 163.972 105.049 166.003C103.152 168.035 100.555 169.271 97.782 169.461L97.0312 169.485H40.9688C38.1894 169.486 35.5135 168.431 33.482 166.534C31.4504 164.637 30.2146 162.04 30.0244 159.267L30 158.526V82.9688C29.9997 80.1894 31.0544 77.5135 32.9512 75.4819C34.8479 73.4504 37.4452 72.2146 40.218 72.0244L40.9688 72ZM102.696 51.4413C102.01 52.1269 101.625 53.0569 101.625 54.0266C101.625 54.9963 102.01 55.9263 102.696 56.612C103.382 57.2976 104.312 57.6829 105.281 57.6829H146.719C147.688 57.6829 148.618 57.2976 149.304 56.612C149.99 55.9263 150.375 54.9963 150.375 54.0266C150.375 53.0569 149.99 52.1269 149.304 51.4413C148.618 50.7556 147.688 50.3704 146.719 50.3704H105.281C104.312 50.3704 103.382 50.7556 102.696 51.4413ZM127.358 152.077L124.549 154.386C128.668 154.641 133.418 154.11 137.734 152.282C144.443 149.441 150.331 143.396 151.006 131.305C151.114 129.375 152.765 127.898 154.695 128.005C156.625 128.113 158.103 129.765 157.995 131.695C157.169 146.494 149.591 154.862 140.464 158.728C135.487 160.836 130.12 161.582 125.268 161.426L126.319 162.705C127.547 164.198 127.331 166.404 125.838 167.631C124.345 168.858 122.139 168.643 120.912 167.15L113.984 158.722C113.158 157.795 112.852 156.458 113.301 155.207C113.539 154.544 113.957 153.997 114.479 153.601L122.913 146.669C124.406 145.442 126.612 145.657 127.839 147.15C129.067 148.644 128.851 150.849 127.358 152.077ZM57.9295 42.2228C62.1877 40.2631 66.9188 39.5871 71.0445 39.7159L68.3073 42.1101C66.8524 43.3827 66.7046 45.5939 67.9773 47.0488C69.2499 48.5038 71.4611 48.6515 72.916 47.3789L81.1331 40.1913C81.6435 39.7796 82.0441 39.2199 82.2617 38.5497C82.6719 37.2862 82.3248 35.9586 81.4708 35.058L74.2882 26.8466C73.0156 25.3916 70.8044 25.2439 69.3495 26.5165C67.8946 27.7892 67.7468 30.0003 69.0194 31.4552L70.1091 32.701C65.2548 32.6944 59.9135 33.604 55.003 35.8639C45.9991 40.0077 38.681 48.6046 38.3098 63.4221C38.2614 65.3545 39.7887 66.9603 41.7211 67.0087C43.6534 67.0571 45.2592 65.5298 45.3076 63.5974C45.6109 51.4917 51.3116 45.2685 57.9295 42.2228ZM97.0312 79.3125H40.9688C40.0852 79.3125 39.2316 79.6325 38.5657 80.2132C37.8998 80.794 37.4668 81.5962 37.3466 82.4715L37.3125 82.9688V158.522C37.3125 160.374 38.6872 161.905 40.4715 162.144L40.9688 162.178H97.0312C97.9148 162.178 98.7684 161.858 99.4343 161.277C100.1 160.696 100.533 159.894 100.653 159.019L100.688 158.522V82.9688C100.687 82.0852 100.367 81.2316 99.7868 80.5657C99.206 79.8998 98.4038 79.4668 97.5285 79.3466L97.0312 79.3076V79.3125ZM45.696 136.441C45.0103 137.127 44.6251 138.057 44.6251 139.026C44.6251 139.996 45.0103 140.926 45.696 141.612C46.3816 142.297 47.3116 142.683 48.2813 142.683H89.7188C90.6885 142.683 91.6185 142.297 92.3042 141.612C92.9899 140.926 93.3751 139.996 93.3751 139.026C93.3751 138.057 92.9899 137.127 92.3042 136.441C91.6185 135.755 90.6885 135.37 89.7188 135.37H48.2813C47.3116 135.37 46.3816 135.755 45.696 136.441ZM44.6251 100.027C44.6251 99.0568 45.0103 98.1268 45.696 97.4411C46.3816 96.7555 47.3116 96.3703 48.2813 96.3703H89.7188C90.6885 96.3703 91.6185 96.7555 92.3042 97.4411C92.9899 98.1268 93.3751 99.0568 93.3751 100.027C93.3751 100.996 92.9899 101.926 92.3042 102.612C91.6185 103.298 90.6885 103.683 89.7188 103.683H48.2813C47.3116 103.683 46.3816 103.298 45.696 102.612C45.0103 101.926 44.6251 100.996 44.6251 100.027ZM45.696 116.941C45.0103 117.627 44.6251 118.557 44.6251 119.526C44.6251 120.496 45.0103 121.426 45.696 122.112C46.3816 122.798 47.3116 123.183 48.2813 123.183H89.7188C90.199 123.183 90.6744 123.088 91.118 122.904C91.5616 122.721 91.9647 122.451 92.3042 122.112C92.6437 121.772 92.913 121.369 93.0968 120.926C93.2805 120.482 93.3751 120.007 93.3751 119.526C93.3751 119.046 93.2805 118.571 93.0968 118.127C92.913 117.684 92.6437 117.281 92.3042 116.941C91.9647 116.602 91.5616 116.332 91.118 116.149C90.6744 115.965 90.199 115.87 89.7188 115.87H48.2813C47.3116 115.87 46.3816 116.255 45.696 116.941Z" />
</svg>
