<svg viewBox="0 0 195 195" xmlns="http://www.w3.org/2000/svg">
<path fill-rule="evenodd" clip-rule="evenodd" d="M20 8H175C181.627 8 187 13.3726 187 20V175C187 181.627 181.627 187 175 187H20C13.3726 187 8 181.627 8 175V20C8 13.3726 13.3726 8 20 8ZM0 20C0 8.9543 8.95431 0 20 0H175C186.046 0 195 8.95431 195 20V175C195 186.046 186.046 195 175 195H20C8.9543 195 0 186.046 0 175V20ZM38 118C47.6758 118 55.7468 111.129 57.5999 102H78.4001C80.2532 111.129 88.3242 118 98 118C107.676 118 115.747 111.129 117.6 102H138.4C140.253 111.129 148.324 118 158 118C169.046 118 178 109.046 178 98C178 86.9543 169.046 78 158 78C148.324 78 140.253 84.871 138.4 94H117.6C115.747 84.871 107.676 78 98 78C88.3242 78 80.2532 84.871 78.4001 94H57.5999C55.7468 84.871 47.6758 78 38 78C26.9543 78 18 86.9543 18 98C18 109.046 26.9543 118 38 118ZM146 98C146 104.627 151.373 110 158 110C164.627 110 170 104.627 170 98C170 91.3726 164.627 86 158 86C151.373 86 146 91.3726 146 98ZM98 110C104.627 110 110 104.627 110 98C110 91.3726 104.627 86 98 86C91.3726 86 86 91.3726 86 98C86 104.627 91.3726 110 98 110Z" />
</svg>
