<svg viewBox="0 0 195 195" xmlns="http://www.w3.org/2000/svg">
<path fill-rule="evenodd" clip-rule="evenodd" d="M20 8H175C181.627 8 187 13.3726 187 20V98H8V20C8 13.3726 13.3726 8 20 8ZM0 20C0 8.9543 8.95431 0 20 0H175C186.046 0 195 8.95431 195 20V175C195 186.046 186.046 195 175 195H20C8.9543 195 0 186.046 0 175V20ZM115.908 49.2327L120.353 54.2185C120.497 54.3671 120.612 54.5439 120.69 54.7385C120.769 54.9331 120.809 55.1418 120.809 55.3525C120.808 55.5632 120.768 55.7717 120.689 55.9661C120.61 56.1606 120.495 56.337 120.35 56.4853H116.808C116.082 60.0292 114.418 63.2959 112 65.9216C109.582 68.5473 106.506 70.4291 103.113 71.3574C99.3407 72.3769 95.3563 72.1796 91.6958 70.7922C88.0353 69.4048 84.8744 66.8937 82.6383 63.5969L85.7425 61.3917C87.5346 64.0339 90.0677 66.0465 93.0012 67.1588C95.9347 68.2711 99.1279 68.4299 102.151 67.6137C104.739 66.9023 107.098 65.4986 108.991 63.5446C110.884 61.5905 112.244 59.1554 112.932 56.4853H109.25C109.105 56.337 108.99 56.1605 108.911 55.9659C108.833 55.7714 108.792 55.5627 108.792 55.3519C108.792 55.1411 108.833 54.9323 108.911 54.7378C108.99 54.5433 109.105 54.3667 109.25 54.2185L113.7 49.2327C113.995 48.9336 114.391 48.766 114.804 48.766C115.218 48.766 115.614 48.9336 115.908 49.2327ZM88.7213 50.8849C88.8675 50.7345 88.9836 50.5554 89.0628 50.3581C89.1421 50.1607 89.1829 49.949 89.1829 49.7352C89.1829 49.5214 89.1421 49.3096 89.0628 49.1123C88.9836 48.915 88.8675 48.7359 88.7213 48.5855H84.5469C85.257 45.9113 86.6279 43.4767 88.5232 41.5236C90.4186 39.5705 92.7725 38.1669 95.3512 37.4521C98.3958 36.6233 101.612 36.7845 104.565 37.914C107.519 39.0435 110.069 41.0871 111.871 43.7694L115 41.5296C112.748 38.1836 109.564 35.6349 105.876 34.2265C102.189 32.818 98.1746 32.6174 94.3741 33.6516C90.9842 34.589 87.9078 36.4782 85.482 39.1124C83.0562 41.7465 81.3747 45.0239 80.6217 48.5855H76.4615C76.3153 48.7359 76.1992 48.915 76.12 49.1123C76.0408 49.3096 76 49.5214 76 49.7352C76 49.949 76.0408 50.1607 76.12 50.3581C76.1992 50.5554 76.3153 50.7345 76.4615 50.8849L81.1546 55.7606C81.451 56.064 81.8503 56.234 82.2662 56.234C82.6822 56.234 83.0815 56.064 83.3779 55.7606L88.7213 50.8849ZM38.1688 40.6787C39.5943 39.7262 41.2702 39.2179 42.9846 39.2179C45.2835 39.2179 47.4883 40.1311 49.1139 41.7567C50.7395 43.3823 51.6528 45.5871 51.6528 47.886C51.6528 49.6004 51.1444 51.2763 50.1919 52.7018C49.2394 54.1273 47.8857 55.2383 46.3017 55.8944C44.7178 56.5505 42.975 56.7221 41.2935 56.3877C39.612 56.0532 38.0675 55.2276 36.8553 54.0154C35.643 52.8031 34.8174 51.2586 34.483 49.5771C34.1485 47.8956 34.3202 46.1528 34.9762 44.5689C35.6323 42.985 36.7433 41.6312 38.1688 40.6787ZM42.9848 28C38.0432 28 33.2127 29.4653 29.104 32.2107C24.9953 34.9561 21.7929 38.8581 19.9019 43.4235C18.0108 47.9889 17.516 53.0125 18.4801 57.859C19.4441 62.7056 21.8237 67.1575 25.3179 70.6516C28.8121 74.1458 33.2639 76.5254 38.1105 77.4894C42.957 78.4535 47.9806 77.9587 52.546 76.0676C57.1114 74.1766 61.0135 70.9743 63.7588 66.8655C66.5042 62.7568 67.9695 57.9263 67.9695 52.9847C67.962 46.3607 65.3272 40.0101 60.6433 35.3262C55.9594 30.6423 49.6088 28.0076 42.9848 28ZM57.2475 68.9143C57.2119 66.5735 56.2582 64.3403 54.5918 62.6959C52.9254 61.0516 50.6797 60.1277 48.3386 60.1233H37.6309C35.2898 60.1277 33.0441 61.0516 31.3777 62.6959C29.7113 64.3403 28.7576 66.5735 28.722 68.9143C25.4857 66.0246 23.2035 62.22 22.1775 58.0043C21.1516 53.7886 21.4302 49.3608 22.9767 45.307C24.5231 41.2533 27.2644 37.7649 30.8375 35.3037C34.4106 32.8425 38.6469 31.5247 42.9857 31.5247C47.3244 31.5247 51.5607 32.8425 55.1338 35.3037C58.7069 37.7649 61.4482 41.2533 62.9946 45.307C64.5411 49.3608 64.8198 53.7886 63.7938 58.0043C62.7678 62.22 60.4856 66.0246 57.2493 68.9143H57.2475ZM148.988 40.357C150.332 39.4086 151.913 38.9024 153.53 38.9024C155.699 38.9024 157.779 39.8118 159.312 41.4304C160.846 43.0491 161.707 45.2444 161.707 47.5335C161.707 49.2406 161.228 50.9093 160.329 52.3287C159.431 53.7481 158.154 54.8544 156.66 55.5076C155.166 56.1609 153.521 56.3318 151.935 55.9988C150.349 55.6658 148.892 54.8437 147.749 53.6366C146.605 52.4296 145.826 50.8916 145.511 49.2174C145.195 47.5431 145.357 45.8077 145.976 44.2306C146.595 42.6534 147.643 41.3054 148.988 40.357ZM153.985 28C149.043 28 144.213 29.4653 140.104 32.2107C135.995 34.9561 132.793 38.8581 130.902 43.4235C129.011 47.9889 128.516 53.0125 129.48 57.859C130.444 62.7056 132.824 67.1575 136.318 70.6516C139.812 74.1458 144.264 76.5254 149.11 77.4894C153.957 78.4535 158.981 77.9587 163.546 76.0676C168.111 74.1766 172.013 70.9743 174.759 66.8655C177.504 62.7568 178.97 57.9263 178.97 52.9847C178.962 46.3607 176.327 40.0101 171.643 35.3262C166.959 30.6423 160.609 28.0076 153.985 28ZM168.247 68.9143C168.212 66.5735 167.258 64.3403 165.592 62.6959C163.925 61.0516 161.68 60.1277 159.339 60.1233H148.631C146.29 60.1277 144.044 61.0516 142.378 62.6959C140.711 64.3403 139.758 66.5735 139.722 68.9143C136.486 66.0246 134.203 62.22 133.178 58.0043C132.152 53.7886 132.43 49.3608 133.977 45.307C135.523 41.2533 138.264 37.7649 141.837 35.3037C145.411 32.8425 149.647 31.5247 153.986 31.5247C158.324 31.5247 162.561 32.8425 166.134 35.3037C169.707 37.7649 172.448 41.2533 173.995 45.307C175.541 49.3608 175.82 53.7886 174.794 58.0043C173.768 62.22 171.486 66.0246 168.249 68.9143H168.247ZM116.529 121.903L127.178 132.651C127.626 133.104 127.626 133.843 127.178 134.296L101.394 160.321L90.4389 161.548C88.975 161.715 87.7354 160.464 87.9007 158.986L89.1167 147.928L114.9 121.903C115.349 121.45 116.081 121.45 116.529 121.903ZM135.654 119.174L129.893 113.358C128.099 111.547 125.183 111.547 123.376 113.358L119.197 117.577C118.749 118.03 118.749 118.769 119.197 119.221L129.846 129.97C130.294 130.423 131.026 130.423 131.475 129.97L135.654 125.752C137.449 123.928 137.449 120.985 135.654 119.174ZM114.333 153.243V165.374H76.5556V127.241H103.685C104.062 127.241 104.417 127.086 104.688 126.824L109.41 122.057C110.308 121.152 109.67 119.615 108.407 119.615H74.6667C71.5382 119.615 69 122.177 69 125.334V167.28C69 170.438 71.5382 173 74.6667 173H116.222C119.351 173 121.889 170.438 121.889 167.28V148.476C121.889 147.201 120.366 146.569 119.469 147.463L114.747 152.23C114.487 152.504 114.333 152.861 114.333 153.243Z" />
</svg>
