<svg viewBox="0 0 195 195" xmlns="http://www.w3.org/2000/svg">
<path fill-rule="evenodd" clip-rule="evenodd" d="M98 8H175C181.627 8 187 13.3726 187 20V175C187 181.627 181.627 187 175 187H98V8ZM0 20C0 8.9543 8.95431 0 20 0H175C186.046 0 195 8.95431 195 20V175C195 186.046 186.046 195 175 195H20C8.9543 195 0 186.046 0 175V20ZM135.593 42.93L138.919 46.0693L147.391 38L151 41.5123L138.94 53L132 46.462L135.593 42.93ZM129.857 29C127.178 29 125 31.1784 125 33.8571V58.1429C125 60.8216 127.178 63 129.857 63H154.143C156.822 63 159 60.8216 159 58.1429V33.8571C159 31.1784 156.822 29 154.143 29H129.857ZM129.857 58.1429V33.8571H154.143L154.148 58.1429H129.857ZM125 85.8571C125 83.1784 127.178 81 129.857 81H154.143C156.822 81 159 83.1784 159 85.8571V110.143C159 112.822 156.822 115 154.143 115H129.857C127.178 115 125 112.822 125 110.143V85.8571ZM129.857 85.8571V110.143H154.148L154.143 85.8571H129.857ZM129.857 133C127.178 133 125 135.178 125 137.857V162.143C125 164.822 127.178 167 129.857 167H154.143C156.822 167 159 164.822 159 162.143V137.857C159 135.178 156.822 133 154.143 133H129.857ZM129.857 162.143V137.857H154.143L154.148 162.143H129.857ZM60.6654 100.459L60.6777 100.448C65.1019 96.5331 71.1589 91.1727 71.1589 80.6053C71.1589 67.6035 59.0293 59 48.0794 59C37.1296 59 25 67.6035 25 80.6053C25 81.3132 25.1394 82.0142 25.4103 82.6682C25.6812 83.3222 26.0783 83.9164 26.5788 84.4169C27.0794 84.9175 27.6736 85.3145 28.3276 85.5854C28.9816 85.8563 29.6825 85.9957 30.3904 85.9957C31.0983 85.9957 31.7992 85.8563 32.4532 85.5854C33.1072 85.3145 33.7014 84.9175 34.202 84.4169C34.7025 83.9164 35.0996 83.3222 35.3705 82.6682C35.6414 82.0142 35.7808 81.3132 35.7808 80.6053C35.7808 74.939 41.5987 69.7808 48.0794 69.7808C54.5602 69.7808 60.3781 74.939 60.3781 80.6053C60.3781 83.4582 59.6696 85.45 58.5199 87.1743C57.3152 88.981 55.5953 90.5536 53.3568 92.5412L53.1743 92.7001L53.0887 92.776C48.7007 96.6676 42.689 101.999 42.689 112.446C42.689 113.153 42.8285 113.854 43.0994 114.508C43.3702 115.162 43.7673 115.757 44.2678 116.257C44.7684 116.758 45.3626 117.155 46.0166 117.426C46.6706 117.697 47.3716 117.836 48.0794 117.836C48.7873 117.836 49.4883 117.697 50.1423 117.426C50.7962 117.155 51.3905 116.758 51.891 116.257C52.3916 115.757 52.7886 115.162 53.0595 114.508C53.3304 113.854 53.4698 113.153 53.4698 112.446C53.4698 109.638 54.1716 107.678 55.3181 105.972C56.5224 104.18 58.246 102.613 60.5014 100.618L60.5472 100.577L60.6654 100.459ZM53.1418 135.097C51.7992 136.439 49.9782 137.194 48.0794 137.194C46.1807 137.194 44.3597 136.439 43.017 135.097C41.6744 133.754 40.9201 131.933 40.9201 130.034C40.9201 128.136 41.6744 126.315 43.017 124.972C44.3597 123.629 46.1807 122.875 48.0794 122.875C49.9782 122.875 51.7992 123.629 53.1418 124.972C54.4845 126.315 55.2387 128.136 55.2387 130.034C55.2387 131.933 54.4845 133.754 53.1418 135.097Z" />
</svg>
