<svg viewBox="0 0 195 195" xmlns="http://www.w3.org/2000/svg">
<path fill-rule="evenodd" clip-rule="evenodd" d="M20 8H175C181.627 8 187 13.3726 187 20V175C187 181.627 181.627 187 175 187H20C13.3726 187 8 181.627 8 175V20C8 13.3726 13.3726 8 20 8ZM0 20C0 8.95428 8.95431 0 20 0H175C186.046 0 195 8.95428 195 20V175C195 186.046 186.046 195 175 195H20C8.9543 195 0 186.046 0 175V20ZM122.7 48.9C122.7 49.4449 122.662 49.993 122.59 50.5411C126.474 52.7272 129 56.8853 129 61.5C129 66.1147 126.474 70.2728 122.59 72.4589C122.662 73.007 122.7 73.5551 122.7 74.1C122.7 81.5939 115.95 87.5914 108.459 86.5897C106.276 90.4737 102.118 93 97.5 93C92.8821 93 88.7241 90.4737 86.5412 86.5897C79.0347 87.5914 72.3 81.5939 72.3 74.1C72.3008 73.5511 72.3376 73.0029 72.4102 72.4589C68.5263 70.2728 66 66.1147 66 61.5C66 56.8853 68.5263 52.7272 72.4102 50.5411C72.3378 49.993 72.3 49.4449 72.3 48.9C72.3 41.4061 79.0347 35.3928 86.5412 36.4103C88.7241 32.5263 92.8821 30 97.5 30C102.118 30 106.276 32.5263 108.459 36.4103C115.95 35.3928 122.7 41.4061 122.7 48.9ZM82.6572 63.7113L94.2083 75.4104L112.318 57.4365L107.882 52.9635L94.2523 66.4896L87.1428 59.2887L82.6572 63.7113ZM35.3571 165C32.6111 164.997 29.9783 163.922 28.0366 162.01C26.0948 160.097 25.0027 157.504 25 154.8V124.2C25.0027 121.496 26.0948 118.903 28.0366 116.99C29.9783 115.078 32.6111 114.003 35.3571 114H159.643C162.389 114.003 165.022 115.078 166.963 116.99C168.905 118.903 169.997 121.496 170 124.2V154.8C169.997 157.504 168.905 160.097 166.963 162.01C165.022 163.922 162.389 164.997 159.643 165H35.3571ZM35.3571 124.2V154.8H159.643V124.2H35.3571ZM120 130H41V149H120V130Z" />
</svg>
