<svg viewBox="0 0 195 195" xmlns="http://www.w3.org/2000/svg">
<path fill-rule="evenodd" clip-rule="evenodd" d="m 20,187 h 155 c 6.627,0 12,-5.3726 12,-12 V 20 C 187,13.373 181.627,8 175,8 H 20 C 13.3726,8 8,13.373 8,20 v 155 c 0,6.6274 5.3726,12 12,12 z M 0,175 c 0,11.0457 8.95431,20 20,20 h 155 c 11.046,0 20,-8.95431 20,-20 V 20 C 195,8.954 186.046,0 175,0 H 20 C 8.9543,0 0,8.954 0,20 Z m 158.568,6.7821 17.066,-13.9938 c 0.488,-0.4005 0.488,-1.1761 0,-1.5766 L 158.568,152.2179 C 157.932,151.6981 157,152.1668 157,153.0062 V 163 H 32 V 38 h 9.9937 c 0.8395,0 1.3082,-0.932 0.7884,-1.568 L 28.7883,19.366 c -0.4005,-0.488 -1.1761,-0.488 -1.5766,0 L 13.2179,36.432 C 12.6981,37.068 13.1668,38 14.0063,38 H 24 v 125 8 h 8 125 v 9.9937 c 0,0.8395 0.932,1.3082 1.568,0.7884 z   M 132.01367 32.039062 A 3.2881181 3.2881181 0 0 0 128.72656 35.328125 A 3.2881181 3.2881181 0 0 0 132.01367 38.615234 A 3.2881181 3.2881181 0 0 0 135.30273 35.328125 A 3.2881181 3.2881181 0 0 0 132.01367 32.039062 z M 151.32617 34.498047 A 3.2881181 3.2881181 0 0 0 148.03711 37.787109 A 3.2881181 3.2881181 0 0 0 151.32617 41.074219 A 3.2881181 3.2881181 0 0 0 154.61328 37.787109 A 3.2881181 3.2881181 0 0 0 151.32617 34.498047 z M 130.85352 49.681641 A 3.2881181 3.2881181 0 0 0 127.56445 52.970703 A 3.2881181 3.2881181 0 0 0 130.85352 56.257812 A 3.2881181 3.2881181 0 0 0 134.14062 52.970703 A 3.2881181 3.2881181 0 0 0 130.85352 49.681641 z M 152.4668 52.259766 A 3.2881181 3.2881181 0 0 0 149.17969 55.548828 A 3.2881181 3.2881181 0 0 0 152.4668 58.835938 A 3.2881181 3.2881181 0 0 0 155.75586 55.548828 A 3.2881181 3.2881181 0 0 0 152.4668 52.259766 z M 114.62305 55.707031 A 3.2881181 3.2881181 0 0 0 111.33594 58.996094 A 3.2881181 3.2881181 0 0 0 114.62305 62.283203 A 3.2881181 3.2881181 0 0 0 117.91211 58.996094 A 3.2881181 3.2881181 0 0 0 114.62305 55.707031 z M 135.73242 64.578125 A 3.2881181 3.2881181 0 0 0 132.44531 67.867188 A 3.2881181 3.2881181 0 0 0 135.73242 71.154297 A 3.2881181 3.2881181 0 0 0 139.02148 67.867188 A 3.2881181 3.2881181 0 0 0 135.73242 64.578125 z M 158.80273 71.566406 A 3.2881181 3.2881181 0 0 0 155.51562 74.855469 A 3.2881181 3.2881181 0 0 0 158.80273 78.142578 A 3.2881181 3.2881181 0 0 0 162.0918 74.855469 A 3.2881181 3.2881181 0 0 0 158.80273 71.566406 z M 127.5332 77.875 A 3.2881181 3.2881181 0 0 0 124.24414 81.164062 A 3.2881181 3.2881181 0 0 0 127.5332 84.451172 A 3.2881181 3.2881181 0 0 0 130.82031 81.164062 A 3.2881181 3.2881181 0 0 0 127.5332 77.875 z M 110.01367 78.488281 A 3.2881181 3.2881181 0 0 0 106.72656 81.775391 A 3.2881181 3.2881181 0 0 0 110.01367 85.064453 A 3.2881181 3.2881181 0 0 0 113.30273 81.775391 A 3.2881181 3.2881181 0 0 0 110.01367 78.488281 z M 144.79688 81.544922 A 3.2881181 3.2881181 0 0 0 141.50977 84.833984 A 3.2881181 3.2881181 0 0 0 144.79688 88.121094 A 3.2881181 3.2881181 0 0 0 148.08594 84.833984 A 3.2881181 3.2881181 0 0 0 144.79688 81.544922 z M 95.990234 93.166016 A 3.2881181 3.2881181 0 0 0 92.701172 96.455078 A 3.2881181 3.2881181 0 0 0 95.990234 99.742188 A 3.2881181 3.2881181 0 0 0 99.277344 96.455078 A 3.2881181 3.2881181 0 0 0 95.990234 93.166016 z M 153.54297 93.416016 A 3.2881181 3.2881181 0 0 0 150.25391 96.703125 A 3.2881181 3.2881181 0 0 0 153.54297 99.992188 A 3.2881181 3.2881181 0 0 0 156.83008 96.703125 A 3.2881181 3.2881181 0 0 0 153.54297 93.416016 z M 119.38086 96.214844 A 3.2881181 3.2881181 0 0 0 116.09375 99.503906 A 3.2881181 3.2881181 0 0 0 119.38086 102.79102 A 3.2881181 3.2881181 0 0 0 122.66992 99.503906 A 3.2881181 3.2881181 0 0 0 119.38086 96.214844 z M 134.93359 99.060547 A 3.2881181 3.2881181 0 0 0 131.64648 102.34961 A 3.2881181 3.2881181 0 0 0 134.93359 105.63672 A 3.2881181 3.2881181 0 0 0 138.22266 102.34961 A 3.2881181 3.2881181 0 0 0 134.93359 99.060547 z M 99.513672 106.05664 A 3.2881181 3.2881181 0 0 0 96.224609 109.3457 A 3.2881181 3.2881181 0 0 0 99.513672 112.63281 A 3.2881181 3.2881181 0 0 0 102.80078 109.3457 A 3.2881181 3.2881181 0 0 0 99.513672 106.05664 z M 82.458984 107.58203 A 3.2881181 3.2881181 0 0 0 79.169922 110.86914 A 3.2881181 3.2881181 0 0 0 82.458984 114.1582 A 3.2881181 3.2881181 0 0 0 85.746094 110.86914 A 3.2881181 3.2881181 0 0 0 82.458984 107.58203 z M 112.42969 113.36328 A 3.2881181 3.2881181 0 0 0 109.14258 116.65234 A 3.2881181 3.2881181 0 0 0 112.42969 119.93945 A 3.2881181 3.2881181 0 0 0 115.71875 116.65234 A 3.2881181 3.2881181 0 0 0 112.42969 113.36328 z M 82.142578 118.23242 A 3.2881181 3.2881181 0 0 0 78.855469 121.52148 A 3.2881181 3.2881181 0 0 0 82.142578 124.80859 A 3.2881181 3.2881181 0 0 0 85.431641 121.52148 A 3.2881181 3.2881181 0 0 0 82.142578 118.23242 z M 68.339844 125.55078 A 3.2881181 3.2881181 0 0 0 65.052734 128.83789 A 3.2881181 3.2881181 0 0 0 68.339844 132.12695 A 3.2881181 3.2881181 0 0 0 71.628906 128.83789 A 3.2881181 3.2881181 0 0 0 68.339844 125.55078 z M 78.087891 127.92578 A 3.2881181 3.2881181 0 0 0 74.798828 131.21484 A 3.2881181 3.2881181 0 0 0 78.087891 134.50391 A 3.2881181 3.2881181 0 0 0 81.375 131.21484 A 3.2881181 3.2881181 0 0 0 78.087891 127.92578 z M 51.365234 138.25586 A 3.2881181 3.2881181 0 0 0 48.076172 141.54297 A 3.2881181 3.2881181 0 0 0 51.365234 144.83203 A 3.2881181 3.2881181 0 0 0 54.652344 141.54297 A 3.2881181 3.2881181 0 0 0 51.365234 138.25586 z " />
</svg>
