<svg viewBox="0 0 195 195" xmlns="http://www.w3.org/2000/svg">
<path fill-rule="evenodd" clip-rule="evenodd" d="M20 8H175C181.627 8 187 13.3726 187 20V175C187 181.627 181.627 187 175 187H20C13.3726 187 8 181.627 8 175V20C8 13.3726 13.3726 8 20 8ZM0 20C0 8.9543 8.95431 0 20 0H175C186.046 0 195 8.95431 195 20V175C195 186.046 186.046 195 175 195H20C8.9543 195 0 186.046 0 175V20ZM34 73C27.3726 73 22 78.3726 22 85V110C22 116.627 27.3726 122 34 122H161C167.627 122 173 116.627 173 110V85C173 78.3726 167.627 73 161 73H34ZM30 85C30 82.7909 31.7909 81 34 81H125V114H34C31.7909 114 30 112.209 30 110V85ZM101 100H52V95H101V100ZM138.21 93.205L147.992 102.794C148.272 103.069 148.728 103.069 149.008 102.794L158.787 93.205C159.242 92.7616 158.92 92 158.279 92H138.721C138.08 92 137.758 92.7616 138.213 93.205H138.21Z" />
</svg>
