<svg viewBox="0 0 195 195" xmlns="http://www.w3.org/2000/svg">
<path fill-rule="evenodd" clip-rule="evenodd" d="M20 8H175C181.627 8 187 13.3726 187 20V175C187 181.627 181.627 187 175 187H20C13.3726 187 8 181.627 8 175V20C8 13.3726 13.3726 8 20 8ZM0 20C0 8.9543 8.95431 0 20 0H175C186.046 0 195 8.95431 195 20V175C195 186.046 186.046 195 175 195H20C8.9543 195 0 186.046 0 175V20ZM79 28H120V58H79V28ZM71 28C71 23.5817 74.5817 20 79 20H120C124.418 20 128 23.5817 128 28V58C128 62.4183 124.418 66 120 66H103V75.0881C107.131 76.9841 110 81.157 110 86C110 87.161 109.835 88.2835 109.527 89.3454L130.701 111.749L138.186 104.562L137.451 124.731L117.269 124.648L124.754 117.46L104.535 96.0662C102.655 97.2894 100.41 98 98 98C95.5287 98 93.232 97.253 91.3232 95.9724L71.1562 117.312L78.6412 124.499L58.4588 124.582L57.7242 104.413L65.2092 111.601L86.4197 89.1573C86.146 88.1513 86 87.0927 86 86C86 80.7751 89.3392 76.3302 94 74.6828V66H79C74.5817 66 71 62.4183 71 58V28ZM163 137H122V167H163V137ZM122 129C117.582 129 114 132.582 114 137V167C114 171.418 117.582 175 122 175H163C167.418 175 171 171.418 171 167V137C171 132.582 167.418 129 163 129H122ZM33 137H74V167H33V137ZM25 137C25 132.582 28.5817 129 33 129H74C78.4183 129 82 132.582 82 137V167C82 171.418 78.4183 175 74 175H33C28.5817 175 25 171.418 25 167V137Z" />
</svg>
