<svg viewBox="0 0 195 195" xmlns="http://www.w3.org/2000/svg">
<path fill-rule="evenodd" clip-rule="evenodd" d="M175 8H20C13.3726 8 8 13.3726 8 20V175C8 181.627 13.3726 187 20 187H175C181.627 187 187 181.627 187 175V20C187 13.3726 181.627 8 175 8ZM20 0C8.95431 0 0 8.9543 0 20V175C0 186.046 8.9543 195 20 195H175C186.046 195 195 186.046 195 175V20C195 8.95431 186.046 0 175 0H20ZM64 44C64 55.0457 55.0457 64 44 64C32.9543 64 24 55.0457 24 44C24 32.9543 32.9543 24 44 24C55.0457 24 64 32.9543 64 44ZM152 32C145.373 32 140 37.3726 140 44C140 50.6274 145.373 56 152 56V32ZM152 24C163.046 24 172 32.9543 172 44C172 55.0457 163.046 64 152 64C140.954 64 132 55.0457 132 44C132 32.9543 140.954 24 152 24ZM152 164C158.627 164 164 158.627 164 152C164 145.373 158.627 140 152 140C145.373 140 140 145.373 140 152C140 158.627 145.373 164 152 164ZM152 172C163.046 172 172 163.046 172 152C172 140.954 163.046 132 152 132C140.954 132 132 140.954 132 152C132 163.046 140.954 172 152 172ZM56 152C56 158.627 50.6274 164 44 164V140C50.6274 140 56 145.373 56 152ZM24 152C24 163.046 32.9543 172 44 172C55.0457 172 64 163.046 64 152C64 140.954 55.0457 132 44 132C32.9543 132 24 140.954 24 152ZM68.4999 73.1128L80.5102 85.1834C80.1805 86.0596 80.0001 87.0089 80.0001 88.0004V108C80.0001 108.959 80.1689 109.879 80.4783 110.731L68.4999 122.77V115.633C68.4999 114.772 68.1575 113.945 67.548 113.335C66.9385 112.726 66.1119 112.384 65.2499 112.384C64.388 112.384 63.5614 112.726 62.9519 113.335C62.3424 113.945 62 114.772 62 115.633V130.633C62 131.495 62.3424 132.321 62.9519 132.931C63.5614 133.54 64.388 133.883 65.2499 133.883H80.2492C81.1111 133.883 81.9377 133.54 82.5472 132.931C83.1567 132.321 83.4991 131.495 83.4991 130.633C83.4991 129.771 83.1567 128.944 82.5472 128.335C81.9377 127.725 81.1111 127.383 80.2492 127.383H73.0796L84.9908 115.415C85.9197 115.792 86.9357 116 88.0001 116H108C109.033 116 110.02 115.805 110.926 115.448L122.921 127.5H115.751C114.889 127.5 114.063 127.842 113.453 128.452C112.844 129.061 112.501 129.888 112.501 130.75C112.501 131.612 112.844 132.438 113.453 133.048C114.063 133.657 114.889 134 115.751 134H130.75C131.612 134 132.439 133.657 133.048 133.048C133.658 132.438 134 131.612 134 130.75V115.751C134 114.889 133.658 114.062 133.048 113.453C132.439 112.843 131.612 112.501 130.75 112.501C129.888 112.501 129.062 112.843 128.452 113.453C127.843 114.062 127.5 114.889 127.5 115.751V122.887L115.49 110.817C115.82 109.941 116 108.992 116 108V88.0004C116 86.9523 115.799 85.9513 115.432 85.0341L127.294 73.1128V80.2491C127.294 81.1111 127.636 81.9377 128.246 82.5472C128.855 83.1566 129.682 83.4991 130.544 83.4991C131.406 83.4991 132.232 83.1566 132.842 82.5472C133.451 81.9377 133.794 81.111 133.794 80.2491V65.2499C133.794 64.388 133.451 63.5614 132.842 62.9519C132.232 62.3424 131.406 62 130.544 62H115.545C114.683 62 113.856 62.3424 113.247 62.9519C112.637 63.5614 112.295 64.388 112.295 65.2499C112.295 66.1119 112.637 66.9385 113.247 67.548C113.856 68.1575 114.683 68.4999 115.545 68.4999H122.714L110.776 80.495C109.911 80.1751 108.976 80.0004 108 80.0004H88.0001C86.9677 80.0004 85.981 80.1959 85.0749 80.5521L73.0796 68.4999H80.2492C81.1111 68.4999 81.9377 68.1575 82.5472 67.548C83.1567 66.9385 83.4991 66.1119 83.4991 65.2499C83.4991 64.388 83.1567 63.5614 82.5472 62.9519C81.9377 62.3424 81.1111 62 80.2492 62H65.2499C64.388 62 63.5614 62.3424 62.9519 62.9519C62.3424 63.5614 62 64.388 62 65.2499V80.2491C62 81.111 62.3424 81.9377 62.9519 82.5472C63.5614 83.1566 64.388 83.4991 65.2499 83.4991C66.1119 83.4991 66.9385 83.1566 67.548 82.5472C68.1575 81.9377 68.4999 81.1111 68.4999 80.2491V73.1128ZM88.0001 88.0004H108V108H88.0001V88.0004Z" />
</svg>
