<svg viewBox="0 0 195 195" xmlns="http://www.w3.org/2000/svg">
<path fill-rule="evenodd" clip-rule="evenodd" d="M175 8H20C13.3726 8 8 13.3726 8 20V175C8 181.627 13.3726 187 20 187H175C181.627 187 187 181.627 187 175V20C187 13.3726 181.627 8 175 8ZM20 0C8.95431 0 0 8.9543 0 20V175C0 186.046 8.9543 195 20 195H175C186.046 195 195 186.046 195 175V20C195 8.95431 186.046 0 175 0H20ZM70.375 91.75C70.375 92.7446 70.7833 93.6984 71.51 94.4017C72.2367 95.1049 73.2223 95.5 74.25 95.5H82V103H72.3125C70.1813 103 66.5 101.312 66.5 99.25C66.5 101.312 62.8187 103 60.6875 103H51V95.5H58.75C59.7777 95.5 60.7633 95.1049 61.49 94.4017C62.2167 93.6984 62.625 92.7446 62.625 91.75V60V52V39.25C62.625 38.2554 62.2167 37.3016 61.49 36.5984C60.7633 35.8951 59.7777 35.5 58.75 35.5H51V28H60.6875C62.8187 28 66.5 29.6875 66.5 31.75C66.5 29.6875 70.1813 28 72.3125 28H82V35.5H74.25C73.2223 35.5 72.2367 35.8951 71.51 36.5984C70.7833 37.3016 70.375 38.2554 70.375 39.25V52V60V91.75ZM156 60H78.375V52H156C162.627 52 168 57.3726 168 64V156C168 162.627 162.627 168 156 168H39C32.3726 168 27 162.627 27 156V64C27 57.3726 32.3726 52 39 52H54.625V60H39C36.7909 60 35 61.7909 35 64V156C35 158.209 36.7909 160 39 160H156C158.209 160 160 158.209 160 156V64C160 61.7909 158.209 60 156 60ZM156.768 130.768C157.744 131.744 157.744 133.327 156.768 134.303L134.303 156.768C133.327 157.744 131.744 157.744 130.768 156.768C129.792 155.792 129.792 154.209 130.768 153.232L153.232 130.768C154.209 129.792 155.792 129.792 156.768 130.768ZM156.768 147.723C157.744 146.747 157.744 145.164 156.768 144.187C155.792 143.211 154.209 143.211 153.232 144.187L144.187 153.232C143.211 154.209 143.211 155.792 144.187 156.768C145.164 157.744 146.746 157.744 147.723 156.768L156.768 147.723Z" />
</svg>
