<svg viewBox="0 0 195 195" xmlns="http://www.w3.org/2000/svg">
<path fill-rule="evenodd" clip-rule="evenodd" d="M20 8H175C181.627 8 187 13.3726 187 20V175C187 181.627 181.627 187 175 187H20C13.3726 187 8 181.627 8 175V20C8 13.3726 13.3726 8 20 8ZM0 20C0 8.9543 8.95431 0 20 0H175C186.046 0 195 8.95431 195 20V175C195 186.046 186.046 195 175 195H20C8.9543 195 0 186.046 0 175V20ZM111 35C108.791 35 107 36.7909 107 39C107 41.2091 108.791 43 111 43H167C169.209 43 171 41.2091 171 39C171 36.7909 169.209 35 167 35H111ZM107 64C107 61.7909 108.791 60 111 60H167C169.209 60 171 61.7909 171 64C171 66.2091 169.209 68 167 68H111C108.791 68 107 66.2091 107 64ZM111 85C108.791 85 107 86.7909 107 89C107 91.2091 108.791 93 111 93H167C169.209 93 171 91.2091 171 89C171 86.7909 169.209 85 167 85H111ZM29 114C29 111.791 30.7909 110 33 110L167 110C169.209 110 171 111.791 171 114C171 116.209 169.209 118 167 118L33 118C30.7909 118 29 116.209 29 114ZM33 135C30.7909 135 29 136.791 29 139C29 141.209 30.7909 143 33 143L167 143C169.209 143 171 141.209 171 139C171 136.791 169.209 135 167 135L33 135ZM29 164C29 161.791 30.7909 160 33 160L167 160C169.209 160 171 161.791 171 164C171 166.209 169.209 168 167 168L33 168C30.7909 168 29 166.209 29 164ZM98 28V43.1163H85.8261V34.0465H69.087V86.9535H79.7391V93H46.2609V86.9535H56.913V34.0465H40.1739V43.1163H28V28H98Z" />
</svg>
