<svg viewBox="0 0 195 195" xmlns="http://www.w3.org/2000/svg">
<path fill-rule="evenodd" clip-rule="evenodd" d="M20 8H175C181.627 8 187 13.3726 187 20V175C187 181.627 181.627 187 175 187H20C13.3726 187 8 181.627 8 175V20C8 13.3726 13.3726 8 20 8ZM0 20C0 8.9543 8.95431 0 20 0H175C186.046 0 195 8.95431 195 20V175C195 186.046 186.046 195 175 195H20C8.9543 195 0 186.046 0 175V20ZM42.2218 18.0139C41.4112 17.9462 40.5994 18.1273 39.8944 18.5329L23.0051 28.2506C21.7547 28.9701 20.9886 30.3071 21.0001 31.7497L21.5744 103.422C21.585 104.751 22.255 105.988 23.3623 106.723C24.4696 107.458 25.8696 107.595 27.0983 107.088L42.5198 100.733L52 101.524V108.692C52 110.765 53.584 112.494 55.6492 112.676L138.649 119.985C139.767 120.083 140.874 119.708 141.702 118.95C142.529 118.192 143 117.122 143 116V109.116L153.431 109.986C154.265 110.056 155.1 109.862 155.818 109.432L172.054 99.7176C173.263 98.9938 174.003 97.6868 174 96.2771L173.854 23.0506C173.851 21.6576 173.124 20.3664 171.934 19.642C170.745 18.9176 169.264 18.8644 168.025 19.5014L152.954 27.2519L42.2218 18.0139ZM60 97.7971C60.0003 97.8252 60.0003 97.8535 60 97.8818V105.028L135 111.632V104.815C135 104.787 135 104.759 135 104.731V45.9716L122.38 44.8604C122.773 45.4791 123 46.213 123 47C123 49.2092 121.209 51 119 51C116.791 51 115 49.2092 115 47C115 45.9607 115.396 45.0139 116.046 44.3027L60 39.3677V97.7971ZM143 42.3083V101.088L149.764 101.652V35.0135L45.8892 26.3476V92.9865L52 93.4963V35C52 33.8781 52.4711 32.8078 53.2985 32.0502C54.1258 31.2925 55.2333 30.917 56.3508 31.0154L139.351 38.3237C141.416 38.5055 143 40.2351 143 42.3083ZM37.8892 28.9164V93.9888L29.5266 97.4351L29.0186 34.0203L37.8892 28.9164ZM157.764 98.9453V33.7742L165.867 29.6069L165.995 94.0198L157.764 98.9453ZM76 61C78.2091 61 80 59.2092 80 57C80 54.7909 78.2091 53 76 53C73.7909 53 72 54.7909 72 57C72 59.2092 73.7909 61 76 61ZM71 68C71 70.2092 69.2091 72 67 72C64.7909 72 63 70.2092 63 68C63 65.7909 64.7909 64 67 64C69.2091 64 71 65.7909 71 68ZM91 98C93.2091 98 95 96.2092 95 94C95 91.7909 93.2091 90 91 90C88.7909 90 87 91.7909 87 94C87 96.2092 88.7909 98 91 98ZM106 104C106 106.209 104.209 108 102 108C99.7909 108 98 106.209 98 104C98 101.791 99.7909 100 102 100C104.209 100 106 101.791 106 104ZM123 94C125.209 94 127 92.2092 127 90C127 87.7909 125.209 86 123 86C120.791 86 119 87.7909 119 90C119 92.2092 120.791 94 123 94ZM102 72C102 74.2092 100.209 76 98 76C95.7909 76 94 74.2092 94 72C94 69.7909 95.7909 68 98 68C100.209 68 102 69.7909 102 72ZM127 57C129.209 57 131 55.2092 131 53C131 50.7909 129.209 49 127 49C124.791 49 123 50.7909 123 53C123 55.2092 124.791 57 127 57ZM73 124C71.3431 124 70 125.343 70 127V167.833C70 169.49 71.3431 170.833 73 170.833H93.4167C95.0735 170.833 96.4167 169.49 96.4167 167.833V150.417H113.833C115.49 150.417 116.833 149.074 116.833 147.417V127C116.833 125.343 115.49 124 113.833 124H73ZM110.833 144.417H96.4167V130H110.833V144.417ZM90.4167 144.417V130H76V144.417H90.4167ZM90.4167 150.417H76V164.833H90.4167V150.417ZM102.583 153.583C100.926 153.583 99.5833 154.926 99.5833 156.583V177C99.5833 178.657 100.926 180 102.583 180H123C124.657 180 126 178.657 126 177V156.583C126 154.926 124.657 153.583 123 153.583H102.583ZM105.583 174V159.583H120V174H105.583Z"/>
</svg>
