<svg viewBox="0 0 195 195" xmlns="http://www.w3.org/2000/svg">
<path fill-rule="evenodd" clip-rule="evenodd" d="M20 8H175C181.627 8 187 13.3726 187 20V175C187 181.627 181.627 187 175 187H20C13.3726 187 8 181.627 8 175V20C8 13.3726 13.3726 8 20 8ZM0 20C0 8.95428 8.95431 0 20 0H175C186.046 0 195 8.95428 195 20V175C195 186.046 186.046 195 175 195H20C8.9543 195 0 186.046 0 175V20ZM42.2218 18.0139C41.4112 17.9462 40.5993 18.1273 39.8944 18.533L23.0051 28.2506C21.7547 28.9701 20.9886 30.3071 21.0001 31.7497L21.5744 103.422C21.585 104.751 22.255 105.988 23.3623 106.723C24.4696 107.458 25.8696 107.595 27.0983 107.089L42.5198 100.733L52 101.524V108.692C52 110.765 53.584 112.495 55.6492 112.676L138.649 119.985C139.767 120.083 140.874 119.708 141.702 118.95C142.529 118.192 143 117.122 143 116V109.116L153.431 109.986C154.265 110.056 155.1 109.862 155.818 109.432L172.054 99.7176C173.263 98.9938 174.003 97.6868 174 96.2772L173.854 23.0506C173.851 21.6577 173.124 20.3665 171.934 19.642C170.745 18.9176 169.264 18.8644 168.025 19.5014L152.954 27.2519L42.2218 18.0139ZM135 104.815C135 104.787 135 104.759 135 104.731V45.9716L122.38 44.8604C122.773 45.4791 123 46.213 123 47C123 49.2092 121.209 51 119 51C116.791 51 115 49.2092 115 47C115 45.9606 115.396 45.0139 116.046 44.3027L60 39.3677V97.7977L60.0002 97.8291L60.0002 97.8578L60 97.8812V105.028L135 111.632V104.815ZM52 93.4963V35C52 33.8782 52.4711 32.8079 53.2985 32.0502C54.1258 31.2925 55.2333 30.9171 56.3508 31.0154L139.351 38.3237C141.416 38.5056 143 40.2351 143 42.3083V101.088L149.764 101.652V35.0135L45.8892 26.3476V92.9865L52 93.4963ZM37.8892 28.9164V93.9888L29.5266 97.4351L29.0186 34.0203L37.8892 28.9164ZM157.764 98.9453V33.7742L165.867 29.6069L165.995 94.0198L157.764 98.9453ZM124.5 163.5H119.786V169.453L111.5 161.167V149.143C111.5 148.705 111.378 148.276 111.147 147.904C110.917 147.532 110.588 147.231 110.197 147.035L100.357 142.113V133.316L104.66 137.619L107.993 134.286L98 124.293L88.0072 134.286L91.3403 137.619L95.6429 133.316V142.115L85.8035 147.034C85.4117 147.229 85.0821 147.53 84.8519 147.903C84.6217 148.276 84.4998 148.705 84.5 149.143V161.167L76.2143 169.453V163.5H71.5V177.5H85.5V172.786H79.5474L87.3217 165.011L96.9466 169.824C97.2737 169.987 97.6344 170.072 98 170.072C98.3656 170.072 98.7266 169.987 99.0537 169.824L108.678 165.011L116.453 172.786H110.5V177.5H124.5V163.5ZM95.6429 156.171V163.901L89.2143 160.686V152.957L95.6429 156.171ZM98 152.079L92.1277 149.143L98 146.207L103.872 149.143L98 152.079ZM106.786 152.957V160.686L100.357 163.901V156.171L106.786 152.957ZM80 57C80 59.2092 78.2091 61 76 61C73.7909 61 72 59.2092 72 57C72 54.7909 73.7909 53 76 53C78.2091 53 80 54.7909 80 57ZM67 72C69.2091 72 71 70.2092 71 68C71 65.7909 69.2091 64 67 64C64.7909 64 63 65.7909 63 68C63 70.2092 64.7909 72 67 72ZM95 94C95 96.2092 93.2091 98 91 98C88.7909 98 87 96.2092 87 94C87 91.7909 88.7909 90 91 90C93.2091 90 95 91.7909 95 94ZM102 108C104.209 108 106 106.209 106 104C106 101.791 104.209 100 102 100C99.7909 100 98 101.791 98 104C98 106.209 99.7909 108 102 108ZM127 90C127 92.2092 125.209 94 123 94C120.791 94 119 92.2092 119 90C119 87.7909 120.791 86 123 86C125.209 86 127 87.7909 127 90ZM98 76C100.209 76 102 74.2092 102 72C102 69.7909 100.209 68 98 68C95.7909 68 94 69.7909 94 72C94 74.2092 95.7909 76 98 76ZM131 53C131 55.2092 129.209 57 127 57C124.791 57 123 55.2092 123 53C123 50.7909 124.791 49 127 49C129.209 49 131 50.7909 131 53Z"/>
</svg>
