<svg id="Layer_1" data-name="Layer 1" xmlns="http://www.w3.org/2000/svg" viewBox="0 0 310 46"><defs><style>.cls-1{fill:#00247d;}.cls-2,.cls-3{fill:#fff;}.cls-3{stroke:#fff;stroke-miterlimit:10;stroke-width:1.13px;}</style></defs><title>aai-edu-id-logo-blue</title><rect class="cls-1" y="0.24" width="310" height="45.53" rx="8.6"/><path class="cls-2" d="M79.16,18.29c0-6.2,2.85-6.76,8.59-6.76,5,0,8.65.22,8.37,6.55H93.49c-.13-4.07-.9-4.22-5.84-4.22-5.15,0-5.86.65-5.86,3.88,0,4.43,2.11,4.06,6.45,4.18,5.53.31,8.32.16,8.32,6.46,0,6.57-3.1,6.79-9,6.79s-9-.71-8.5-7.45h2.64c-.06,5.12.93,5.12,5.86,5.12s6.33,0,6.33-4.56-2-3.69-6.23-4C83.09,23.88,79.16,24.44,79.16,18.29Z"/><path class="cls-2" d="M125.47,35h-4L115.39,14h-.07L109.15,35h-3.94L98.08,11.72h2.69L107.1,33h.07l6.26-21.25h3.88L123.51,33h.07l6.48-21.25h2.73Z"/><path class="cls-2" d="M138.18,35h-2.64V11.72h2.64Z"/><path class="cls-2" d="M151.15,35h-2.64V14H141V11.72h17.72V14h-7.54Z"/><path class="cls-2" d="M167.43,35.17c-4.25,0-6.76-2.67-6.76-7.32v-9c0-6.57,4.06-7.32,9.71-7.32h2.17c4.87,0,6.36,2.11,6.36,6.7V19h-2.64v-.66c0-3.25-.68-4.46-4.09-4.46h-1.49c-5.46,0-7.38.65-7.38,4.9v6.39c0,5.3.21,7.69,4.62,7.69h3.13c4.22,0,5.52-.59,5.52-3.91V27.07h2.64v2.17c0,5.34-3.41,5.93-8.07,5.93Z"/><path class="cls-2" d="M201.46,35h-2.64V24.28H185.2V35h-2.63V11.72h2.63V22h13.62V11.72h2.64Z"/><path class="cls-2" d="M224.56,29.8c0,5.12-2.95,5.37-7.6,5.37-6.23,0-7.51-2-7.51-8.28,0-5.84.93-8.38,7.51-8.38s7.6,1.95,7.6,9.06h-11.2c0,3.5.1,4.62,3.6,4.62,2.17,0,3.69,0,3.69-2.39Zm-3.91-4.71c0-3.35-.49-3.6-3.69-3.6-3.38,0-3.6.71-3.6,3.6Z"/><path class="cls-2" d="M238.55,32.53h-.12c-1,2.14-2.8,2.64-5.09,2.64-6.05,0-6.24-3.82-6.24-8.81,0-4.78.65-7.85,6.24-7.85,2,0,4.06.37,4.9,2.36h.15V11.72h3.91V35h-3.91ZM231,26.36c0,3.69-.09,5.83,3.48,5.83,4,0,3.84-1.95,3.84-5.83,0-3.48-.46-4.87-3.84-4.87C231.79,21.49,231,22.26,231,26.36Z"/><path class="cls-2" d="M256.88,35V32.47h-.12c-.9,2.17-2.92,2.7-5.15,2.7-3.26,0-5.43-1.12-5.46-4.69V18.7h3.91V29c0,2.33.21,3.23,2.73,3.23,3,0,4-1.27,4-4.09V18.7h3.91V35Z"/><path class="cls-2" d="M270.87,24.93v3h-8.25v-3Z"/><path class="cls-2" d="M277.38,35h-4.46V11.72h4.46Z"/><path class="cls-2" d="M281.35,11.72h11.11c6.42,0,9.15,2.32,9.15,8.65v5.49c0,4.84-1.37,9.12-8.41,9.12H281.35ZM293.2,31.17c3,0,3.94-2.7,3.94-5.31V20.37c0-3.88-1.27-4.84-4.68-4.84h-6.64V31.17Z"/><path class="cls-2" d="M14.47,30.58,13,35H8.39l7.73-23.26h6.57L30.57,35H26l-1.52-4.4Zm5.06-15.45h-.06l-4,12.07h8Z"/><path class="cls-2" d="M36.46,30.58,35,35H30.38l7.73-23.26h6.57L52.56,35H48l-1.52-4.4Zm5.06-15.45h-.06l-4,12.07h8Z"/><path class="cls-2" d="M59,35H54.52V11.72H59Z"/><line class="cls-3" x1="68.85" y1="10.83" x2="68.85" y2="34.98"/></svg>