<?xml version="1.0" encoding="UTF-8" standalone="no"?>
<svg
   xmlns:svg="http://www.w3.org/2000/svg"
   xmlns="http://www.w3.org/2000/svg"
   viewBox="0 0 504.71 351.83" >
  <g id="book">
    <rect
       x="364.60001"
       y="49.189999"
       width="1.88"
       height="1.33"
       id="rect6" />
    <path
       d="m 175.83,143.41 0.61,208.42 c 0,-53.08 -40,-67.32 -88.52,-67.32 H 0 V 47.42 h 87.92 c 48.5,0 87.91,42.91 87.91,95.99 z"
       id="path2" />
    <path
       d="M 318.75,140.65 H 272.3 V 94.22 h 46.42 v -46.8 h -41 c -48.51,0 -87.92,42.9 -87.92,96 l 0.17,208.4 c 0,-53.07 39.24,-67.31 87.75,-67.31 h 87.92 v -96.79 h -46.89 z m 46.84,-46.43 h 0.1"
       id="path4" />
    <rect
       x="317.95001"
       y="93.86837"
       width="46.939999"
       height="46.939999"
       id="rect14" />
  </g>
  <g id="cross">
    <rect
       x="410.92001"
       width="46.939999"
       height="46.939999"
       id="rect8"
       y="0" />
    <rect
       x="364.17999"
       y="46.950001"
       width="46.939999"
       height="46.939999"
       id="rect10" />
    <rect
       x="411.13"
       y="93.699997"
       width="46.939999"
       height="46.939999"
       id="rect12" />
    <rect
       x="458.14001"
       y="47.25"
       width="46.57"
       height="46.57"
       id="rect16" />
  </g>
</svg>
